<mxfile host="Electron" agent="Mozilla/5.0 (X11; Linux x86_64) AppleWebKit/537.36 (KHTML, like Gecko) draw.io/26.1.1 Chrome/132.0.6834.210 Electron/34.5.0 Safari/537.36" version="26.1.1">
  <diagram name="Page-1" id="xTxtu6eeksrXppuyStMy">
    <mxGraphModel dx="1434" dy="868" grid="1" gridSize="10" guides="1" tooltips="1" connect="1" arrows="1" fold="1" page="1" pageScale="1" pageWidth="827" pageHeight="1169" background="none" math="0" shadow="0">
      <root>
        <mxCell id="0" />
        <mxCell id="1" parent="0" />
        <mxCell id="HipKkYMY8DTguzKFv34O-1" value="DY-PC (Personal Computer)&lt;br&gt;Custom Built&lt;br&gt;(192.168.1.100)&lt;br&gt;DY-PC.home" style="image;points=[];aspect=fixed;html=1;align=center;shadow=0;dashed=0;image=img/lib/allied_telesis/computer_and_terminals/Personal_Computer.svg;imageBackground=default;" parent="1" vertex="1">
          <mxGeometry x="90.28999999999999" y="450" width="60" height="81.31" as="geometry" />
        </mxCell>
        <mxCell id="HipKkYMY8DTguzKFv34O-7" value="Laptop&lt;br&gt;HP Arch Envy&lt;br&gt;(192.168.1.101)&lt;br&gt;Laptop.home" style="image;points=[];aspect=fixed;html=1;align=center;shadow=0;dashed=0;image=img/lib/allied_telesis/computer_and_terminals/Laptop.svg;imageBackground=default;" parent="1" vertex="1">
          <mxGeometry x="280" y="447.4" width="81.44" height="82.6" as="geometry" />
        </mxCell>
        <mxCell id="HipKkYMY8DTguzKFv34O-10" value="Prox-Mox Server&lt;br&gt;(192.168.2.100)&lt;br&gt;Server-1.home&lt;div&gt;Vlan100 | Vlan200 | Vlan300&lt;/div&gt;" style="image;points=[];aspect=fixed;html=1;align=center;shadow=0;dashed=0;image=img/lib/allied_telesis/computer_and_terminals/Server_Desktop.svg;" parent="1" vertex="1">
          <mxGeometry x="490.73999999999995" y="448.36" width="63.65" height="80.68" as="geometry" />
        </mxCell>
        <mxCell id="HipKkYMY8DTguzKFv34O-11" value="Tor-Node&lt;br&gt;2012 Mac Mini&lt;div&gt;(192.168.3.100)&lt;br&gt;Server-2.home&lt;/div&gt;" style="image;points=[];aspect=fixed;html=1;align=center;shadow=0;dashed=0;image=img/lib/allied_telesis/computer_and_terminals/Server_Desktop.svg;" parent="1" vertex="1">
          <mxGeometry x="687.39" y="450" width="64.14" height="81.31" as="geometry" />
        </mxCell>
        <mxCell id="HipKkYMY8DTguzKFv34O-45" value="" style="shape=image;verticalLabelPosition=bottom;labelBackgroundColor=default;verticalAlign=top;aspect=fixed;imageAspect=0;image=data:image/png,iVBORw0KGgoAAAANSUhEUgAAAgAAAAIACAYAAAD0eNT6AAAACXBIWXMAAAsTAAALEwEAmpwYAAAgAElEQVR4nO2dCZwVxbm3xyUxuxE4fWaQgAtRQ9S4JlevN2riEpOo0WsSTWIWNZrNxJvPaG6Se0fjEo0X4VQfBkdQFBFlXBBxV8QNRRk41T0rDMywDjMDszL71l+9DRiEWc7Sfd5e/s/v92TUsFRXVddb3V31Vk4OAMDbFBZ/bKy+cnwknjghEkucF40nfqDp5rVR3bxZ041/RIUxM6rL+VEhF6mfr6qf72q6LFY/q9T/X6MJ2bSn6tf3RnXD+ojqv+3969Tvrd75Z9h/1ru7/uxFO/8uo0ATxp3q501Ullzd/L76eW5ElHyFypqTv/RA7moDAAAAPEtubFVkXEyeqILtRVFh/k4F3rtUgJ2ngutS9d/KlA37BGufSGVX11FK16L+/RH72tQ1RmPyQprM5BUWj+OufwAAAMAdiooOUE/Nh9PTsXqS/pUKhP+nAvxCFRxLlJ3cQZpbuw6ENKlOosK4RxOJ6zRhnhOdljgsJ9/an7v5AAAAgFGhV98UvFRQ+4MKaoUqwL2j/rmdO8j6VTVh6tn5FkQWqX+/hT4zROOJL9OkirutAQAAhJHC4o9RIIoI+VMVoGJ2oBdGB3fADI20XkFNDNTPuTTZisTlGXmFxZ/i7hYAAACChHraVEHmOOU1ytk7X1cbfexBEO5tn2obQzlLeXV0ujwWnxAAAAAkzZjY8s/lxs1vR3V5hwr4r6ufbR4IbjA9W9Vk4DXl7bnCuGDs3RWf5e5fAAAAPAIFBfu7vb363nhnyC1yMBgKo3/npwNZSOsJsAsBAABCxISp735y14r8f6qAkFDBYJA9MEEm5YD6uUr1hbtpEjhpTs0nuPsnAAAAB6HkNJSwhhLZqCf9Lv7AA73orm2ZL0d0eSOt++DutwAAAFKEnuR2bceLqae7DdyBBfpTTRjr7e2cMXkh3g4AAIBHGa+Xj1UD9VVqwH4Ge++h09p9ShhPK38+YWrpGO7+DgAAoYYWcdl78YWxGIv3YNYURn90Z5KnP4y7tziP+z4AAIBQoE03o1FdXq8G4bd3LeLiDwgwvNLOAiHfVP/8WzrXgfv+AACAQEEr9+3T5vCkD73sh28GzGuRcwAAANIlf+mB6gn/uyroL8ChOdBvUmpo5WNRkfgOzi4AAIAkGD/NOFoNoLdg9T4MkLX2jpQZ5vHc9xcAAHiKndn4jF9GhXzXA4M1hG76Dp1VEImXfob7vgMAADbyhHkMpeBVNnlgYIYwi8o2yjFASaq470MAAMgKU/JLP26f667LV/kHYQj51XRZTAsHabEr9/0JAACOM1ZfOZ5OZdN0o4F7wIXQi2rCqFcT49uQWwAAEAjydOMketWJHPwQJqemyx5lkaabp3HfvwAAkBr51v65MeMy9TSzjHswhdDXCuPtiJCX0j3FfVsDAMCw0Pd9OzWvLivYB04Ig6SQ6yj1MA4lAgB4Cnsbnxqc1NPKZvaBEsJAK+vUz1sOnpb4PPd9DwAIMXQqGi1aUoG/hX9ghDBUNqv77taJBeYh3OMAACBE2EfvqqcQexDiHwghDK9C7qBcGjiiGADgKnT8bpQCP574IfSWNBGgdMPTzSj3OAEACBCUtjSqmzcj8EPocXe9ETiksPhg7nEDAOBjaFU/ZSjbtfCIf3CDECalmgRsp0k7dg0AAFIjf+mBdDiPpstN3AMZhDB97VM1Y/IqHEkMABgVTZjnRIU0uQcuCKFzUm6OXGFcwD2+AAA8SG5s1RRNyOe5ByoIoXtqwlgciZUcyT3eAAA8wJiZiUPV08GcqC4HuAcnCKH7qvu9W3n3mNjyz3GPPwAADgqLP2Zn76NzyT0wKEEIsystFKQxAOsDAAgRWtz4prrxy7gHIAihJ1yVGze+zj0uAQBchL790TGjHhhwIIQek9YHRIU8nHucAgA4Cb3uF8ZfNCG7uAcZCKF31XSjMyqMm2grMPewBQDIkEg8cYJ66i/mHlgghD5SSCN3xqpTuccvAEAaTJj67icpJaiazfezDybQk06YYVp5cf5yQM/aR+cLRO+Rn+YezwAASUILelTgX+2BAQR62F++uMG64tlq9nJAjyvkOkoQxj2uAQBG4OBpic+rm7VQOcg+aEDP+/amHdaS9W3s5YD+kBYQ01Hg3OMcAGAvojF5oXrq38w9SEB/+LW5FdagZdmePq+SvTzQL8q6iJA/5R7vAAA5uzL50fYd9oEB+smCVQ3WbgrlNvbyQJ8p5DPj7i3O4x7/AAgtmp64ZOexnx4YEKBv/EKBaW3v7PtwArCjZ8CaXFjKXi7oO5ujurycexwEIFTYK/xpdS7/AAB96G9f2Wjtzc1LN7OXC/pUYcyNxEs/wz0uAhB4cnXzFKzwh5m4vLZ9nwnAmqZuK9cDZYP+VD2QVGu6eRr3+AhAMLGs/ejgDk2XPdw3O/SvZ8yrtBf+DcVlC9exlw/62j7lLThcCAAHyZteOlEF/jc8cINDnzvb2DZM+LesF9a1spcPBkAh38WZAgA4QG7MuEwF/0b2mxr63kkzS6yW7v5hJwD9g4PWqQ9XsJcTBkBhtGgx88fc4ycAvmRMbPnnaHEN+40MA+MNSzYNG/x3E1/ZwF5OGBzVw8scLBAEIAXGTzOO1nSjjPvmhcFyVV3HqBMAekNw2MwS9rLCAEmLluOJL3OPqwB4HhX4L6LXZ+w3LQyU33hs9ajBfzf0poC7vDBoyjb6nMk9vgLgTYqKDth5eh/y+EPnnVvamPQEoGRbJ3t5YQBVYxvlL8nJX3og93ALgGfIKywep26OV9hvUBhIj7ivxGrrGX7x31Bc9ORa9nLDYEo7mrTpZpR73AWAnTzdOEnNimu4b0oYXG9aujml4E8sqmpmLzcMrmoSsCkal1/jHn8BYINO1VLBv5P7ZoTB1mzoTHkC0DcwaJ0wp5y97DC4qklAtyaMX3KPwwBklcmxNQdFdXk/9w0Ig++3n6hKOfjvZuoHdezlhyFQGHPpfBPucRkA1xmrrxyvZr0fsN90MBQ+Xt6U9gSATgycWGCyXwMMvmpMXB6Jl+Zyj88AuEZ0ujxW0+UG7psNhsOj7i+1OvsG0p4AEHRyIPd1wJAojM2ReOIE7nEaAMfRhHkO9vfDbPq3t7ZkFPyJlXUd7NcBw6RsyxXGBdzjNQCOEdUTv1DBv5f/5oJhsrKxK+MJAPGtoir2a4Ghsk8Tieu4x20AMsOy9lOd+RYP3FAwZF781FpHgj9RVNnEfj0wfNpJg9QYyj2MA5Ayu1b6z+O+iWA4fWp1s2MTgN7+QevYB8rYrwmGT02XRZPm1HyCezwHIGkmTC0dQ9muuG8eGE6PmVVqdaug7SR3Ld/Kfl0wrMpllC2Ve1wHYFS0AvMIFfwr+G8aGFZvfafW0eBP1Lb3WofOwJZAyKSQVeOmr/oi9/gOwLBEReKrmm40sN8sMLTmKtc2dzs+ASCueXE9+/XBMCvr8mLmydzjPAD7ENUTZ6lO2sp/k8Aw+4Nn1rkS/In3trSzXx8MuULuiMYSZ3OP9wB8SDQmL9SE7GK/OWDoXby2xbUJAHHugjXs1wjDrSaMjkgscR73uA9AjiYSP1Gdso/7poDwuAfKrN4BZxf/7c28skb264RQ02WPpicu4R7/QYhRM9H/igo5yH0zQEjevbzO1eBPdPUN2LsMuK8VQju5mpA/5I4DIISozvcn9hsAwl3mxQ1rU1uP6xMA4tZltezXC6GtMPrVJOBq7ngAQkRUN29m7/gQ7uGVz9VkJfgTNNEYH8eWQOgRhRzUdOMG7rgAQkAUqX2hB321pjVrEwDiZ2rCwX3NEO6pJmQ+d3wAASaqy9u4OzmEe3vSQ+VW/6C7i//25s2NO9ivG8K9VZOAu7jjBAggKvjfwd25IRzKaSvqsxr8d3Pm/NXs1w7hEP6dO16AAIEnf+hVKT3v1vZelgnAHHM7+/VDOKRC/pk7boAAoOnyf9k7M4TDSOl5uWjvHbC+WIgtgdCbqrH7j9zxA/gYTcj/x92JIRzJtzftYJsAEH97awt7HUA4pLQ7QBi/5I4jwIfQthL2DgzhCP7b3Aoru0v/9qW6pcfOQcBdFxAO6c48AUgWBJInEpdXIsMf9LozEw3M4X8nVyyqZq8LCIeVMgbG5IXccQX4AC1uXBxFbn/ocb9QYFrbO/u4Y7/Na+vb2OsDwpGkswNyhXEBd3wBHkY99X8Dp/pBP3j9qxu54/6H0GeI0x+pZK8TCEeSThHMjRtf544zwINEReKr9lnTHuioEI7mB7Ud3HH/I9yX2MZeJxCOqjBa8mLmydzxBngIFfgPV7PDevbOCWESnj1/NXe834eW7n7riPtK2OsGwtFUY/22SLx0MnfcAR5gwtTSMZouK7k7JYTJSgl4vMhNSzez1w2EyajG/IqJBeYh3PEHMDIlv/Tjmm4s4e6MECYrPWW39fRzx/ohWd3YZeV6oI4gTEZNyDcnx9YcxB2HAAeWtV9UGHO5OyGEqXjj65u44/yIXLpwHXsdQZismjAeo1jAHY5AlsHhPtCPmg2d3DF+RJ5f18JeRxCm6C3c8QhkkWhMXuWBTgdhSn6rqIo7vo8KHUt86sMV7HUFYdIKOZirGz/jjksgC0T1xFmUFIK900GYokWVTdzxPSmwJRD6TmH0asI8hzs+ARfJja2aohq7mb2zQZiiU2aXWd393Jn/k2NHD04JhL60VdON47jjFHCBcfcW56kn/w0e6GQQpuxdy7dyx/WU+B+cEgh9qJoA1ETipbnc8Qo4yKQ5NZ/QhPEBd+eCMB0PnWFatTt6uWN6Smxs7bHGx032uoMwdeV72B4YINSsbjZ/p4IwPa95cT13PE+Lq15Yz153EKbpfdxxCziAppvXeqAzQZi2721p547labG8tp297iBMWyGv5o5fIAPogB9Nl93sHQnCND3Tg3n/U4G2LnLXIYTpSCfD5urmKdxxDKTBeL18LC3o4O5EEGbivLJG7hieEU+tbmavQwjTlRaO5xUWj+OOZyAViooOUI33MnfngTATj7q/1OroHeCO4RnROzBonTCnnL0uIUxbIV+jmMId1kCSRIVxD3ungTBDb32nljt+O0KsuJ69LiHMTHkHd1wDSaAJ83uU2pG/w0CYvnlxw1rf2sMdux2hpbvfOvy+EvY6hTBtKV1wzLiMO76BERg/zThaNVYre2eBMEN/+lwNd9x2lJuWbmavUwgzU7ZRNlnuOAeGYExs+ec0XVbydxIIM/eNjTu4Y7ajrG3utt9qcNcrhJmo6UZZJF76Ge54B/YiKoy53J0DQic87ZFKyx9Z/1PjR89Ws9cthJlKieW44x3YA/o2w90pIHTKB4zt3LHaFd7cuIO9biF0RCF/yB33gOLQmDFB02Uje4eA0AGPLCyx2nr6uWO1a3zjsdXsdQyhAzbnTS+dyB3/wk2+tb+mG697oDNA6Ih/eXMLd4x2lflljex1DKETakK+ifwAjKjg/1fuTgChU+Yqq5q6uWO0q/T0D1rHPlDGXtcQOqIwbuKOg6EkL2aerOmyh70DQOiQP1xUzR2fs8I/l9ex1zWEjiiMXjpzhjsehoroPfLT2PIHg+YrNa3csTkrbOvssyYWmOz1DaEjClmFrYFZhLZhsDc6hA568kMVVv9gEDf/Dc3vX9vIXucQOqYwZnLHxVCg6YlL2BsbQoctWNXAHZOzSsX2LnvNA3e9Q+iUWty4mDs+BpoxMxOHakJu525oCJ30sJklVnNXcLf+Dcf3n1nHXvcQOqUmjG3j7i3O446TgSUq5DPcjQyh01Ke/DCydEMbe91D6KSabjzHHScDSVSXl3M3LoROS6/B1wR8699InPP4GvY2gNBJ1STgR9zxMlBMmFo6Rk0A6rgbFkKn/cniGu4YzMoTlU3sbQChk9Jnam26GeWOm4FBVehD3I0KoRu+vSlYp/6lSu/AoHXSQ+Xs7QChowr5DHfcDATRWOJsVZmD7A0KocOeNX91IE/9S5WZiQb2toDQaemQOu746WvyCos/FdXlWu6GhNANF1Q0ccdeT7CjZ8A66v5S9vaA0Fll3cQC8xDuOOpbosKYyt+IEDrvVx4st3r78fy/m9vf3creJhA6LhIEpUfujFWnqsrrZ29ACF1w+op67pjrKRo6kB4YBlE5EImVnM4dT/1F/tIDVeWt4m88CJ2XEv80hTDxz2jcsGQTe9tA6LSabpTkFBZ/jDus+gZNGH/hbjQI3fLmkCb+GY21Td1WXpy/fSB0XvNm7rjqCyKxkiM1Ibv4GwxC5w174p/RoLwI3G0EodOqh9qO3PjKSdzx1fNouvEsd2NB6JZhT/wzGu9taWdvIwjdUNPlE9zx1dNEYonzuBsJQjd9J+SJf5Lhu09WsbcThG4Y0eX53HHWk0zJL/24miFVcjcQhG553oI13LHVF7xU3creVhC6oSZkORYEDkFUl//N3TgQuumzVS3csdUXUHaEM+evZm8vCN1QPej+kTveeooxMxOHRoXcwd0wELrlqQ9XWP2DSPyTLEU4JAgG11YcFrQHOOwHBt055nbumOor+gYGrVPUpIm73SB0RSELueOuJ4iIkq9QtiT2BoHQJY+ZVWp19A5wx1Tf8YCxnb3tIHRFYfRrunEcd/xlRwX/V9kbA0IX/b8P6rhjqS/p7h+0jnugjL39IHRDNQFYwh1/WVHB/7vcjQChm1La38auPu5Y6lumrahnb0MI3TK82wLzlx5IWyK4GwBCN/3Lm1u4Y6ivae3pt75YiKOCYTC1zwkoKjqAOxxnHU03r+WufAjddHzctGpaerhjqO+5dVkte1tC6JrC+Dl3PM4qk+bUfEI9/W9kr3gIXfS6lzZwx85AgKOCYZDVhLF+cmzNQdxxOWtEdHkjd6VD6LZGfSd37AwMN76Oo4JhgBXy99xxOSuMvbvis2rGU89e4RC66GUL13HHzEBR3dJjf1LhblcI3VDTjQaKjdzx2XWiuryNu7IhdNsHkfjHcX798gb2doXQLdWD8d+447Or5BUWj1MTgDbuiobQbQ+/r8Q+2hY4x5qmbisvzt+2ELqiMFomFpiHcMdp19CEvIu9kiHMkrR9TWIdgKP8/Pka9naF0DWFcSt3nHaF8Xr5WDz9w7B51P2lltmASYBTUF3meqBdIXTJ1kC+BdCEcacHKhfCrDtldpm1urGLO3YGhssXVbO3KYQuegt3vHaUCVNLx+DpH4bZYx8os6qaurljZyBYsbWDvT0hdM2grQWICnk7e6VCyOwJc8qtDa3IDOgEFz+1lr09IXRLTch87rjtCGNiyz+nLqiZu0Ih9IInPVRubWrDJCBTlm5oY29LCN1STQCaIvHSz3DH74xRT/9/5q5MCL3kaY9UWnXtvdwx1Pecv6CKvS0hdE95PXf8zgjKb6wupJa/IiH0lv/x6GqrvgPHBGfCi9Wt7O0IoVtqulFNp+Zyx/G00UTiOu5KhNCrnv5IpVW7A28C0mVQedb81eztCKFb5urm97njeHoUFR2gLmANdwVC6KaHzSyxnlrdbB0zK70z6/9tboW1uQ2TgHRZuKaZvQ9A6JaaMD7gDuVpkRszLuOuPAjdNv/tWjsQbVFP8uctWJPWn0ELA2tasDAwHfoHB+03Kdz9AEK3jMTlGdzxPGWiQr7LXXEQuimdUb/nYr6O3gHr2pfSO7CGJgHVmASkxWPljex9AUL3lAu543lK5MXMk/krDUJ3/fMbm/cJRvRdesbKBuvQGakfXXvcA2VW2XZkDEyV3oFB69SHK9j7A4SuKORg7oySL3HH9aRRBX6UvdIgdNEJKsCPtJ8/Ud9hfW1u6kGJzg54vxanCKbK3FK8BYABVhgzueN6UozVV47XdNnDXmEQuuj/e33TqEGpraff+lUaZ9jTwsIlG9qyEDaDA70FOAVvAWBA1YTs0qabUe74PipRXd7BXVkQuun4uGmta04+r39RZZN1+H0lKf0dEwpMa1FVs4shM3jMMbez9w0I3dLz6YEp8Y+mGw3cFQWhm17/6saUgxOdBvitotQy19FE4+GS7S6EymDS0z9on7fA3T8gdENNGPUUY7nj/LBoIvET7kqC0E0pKK9N81Q/2rI2S26zX/Gn8nf+7a0t1sCgw9EyoMw2trH3EQjdUk0CruCO88MS1eUy7gqC0E3pm36m0Ha/i1I8ze6aF9db3f2YBYwG1dEJD+ItAAymmpBvcsf5IdFmmMdzVw6EbpoXN6zKRme26dHbgPjKBmtSCm8DLl24zmrp7nfk7w8yhRJvAWCAnS6P5Y73+0DbFNgrBkIXvfqF9Y4Hq/WtPdaPF9ckXQY6RAjHCY8MvQX4Ct4CwICq6UaMO95/BDq3WBWslbtiIHTLXKXZ0Ola0KKT7U5+KLltbBTcjHr3yhIEClY1sPcZCF1RGC3Re+SnueP+h2jC+CV7pUDoolc+V+N60OrqG7Dueb/O+kLB6FkEKQ3xE5VNrpfJr1Ba5i/PLmPvNxC6ojB+zh33PySqy/fYKwRCF11V15G14EW7DGjCMVqZ6K3EXcu3WlgaODS0xoK730Dohp5ZDDh+mnE05SrmrhAI3fLyRdUsAWzF1g7rO0+MnjuA1hBQ1kHwUegtwBS8BYBBVMXcSLx0Mnf8z9F0+U/2yoDQRd/bwpebn57un61qGfWwm7Pmr7Y2tmJx4N5MX1HP3n8gdEUhb+eN/vlLD1QFqWWvCAhd8pKn13HHMBtaHyCK660vFpYOW1b65s05WfEi9Gbk6FnD1xmEvlUYm3OKig5gi//RmLyQvRIgdNF3Nu3gjmEfgfIA3L28zjqycOj8AXQM8YxVDVgXsAf3foC3ADCYRnR5PtsEQNNlEXcFQOiWFz25ljt2DUtzV7+9Y2C4NwI/fa4GSYN20Y61ADCwynkswX/s3RWf1XSjk78CIHTHZZu99fQ/FE27JgKTh5gInPZIpVW23ZnMhX4HawFgEFUxuJ3y8GR9ApCrGz/jvngI3ZLS7vqJho4+67Zltfu8EaCDh4qQLwBvAWBgZTkgSP3FL3NfOIRu6dfFdLTojfa/H79XKtyblm62j8sNMzOQFwAGUE03ns1u8C+QmvqL+7gvHEI3vMxnT/9D0auCPT35nzGv8sPr+vqjq63yEH8SoLwAxz6AtwAwYAqjd7xePjZ7EwAhf89+0RC65PJafz79D8WAeuhfvLbFuqBoZ0Ih+iTwSGkjd7HYuC+BkwJh8NR0+avsTQB04x3uC4bQDb//jP+f/oeDDhC68fVN9jkCv3h+vb2TIGzQSYEn4KRAGDA13ViSleAfiZfmRnU5wH3BELqhX7/9pwItGNRXNthphsNwvXsz28BbABgwhdFPn+ZdnwDkCuM37BcLoQv+kCnnPxe0TuC5tS3Wy9WtVu9AeBYI0mLIE+fgLQAMlppuXOP6BIBeNXBfKIRu+EFt9k788xq9Idsh8FDJdvb+BqGjCuNFV4M/rTSMYvU/DKBcJ/4BHuiNx2gHLEHoK4XRO7HAPMS1CUBUT/yC/SIhdMEgrfwHyUG7Ibj7HYROGonLK92bAAi5iPsCIXTaK57F038YobcAX8VbABggNV0+4Urwnxxbc5CaAOzgvkAInXZlXXi//Yedx8rxFgAGSBWjKVY7PgHIjZvfZr84CB32R3j6DzX9g4PW6XtkS4TQ72rCPMfxCUBUGAXcFwah067C03/ooZTJ3P0QQscUcprjEwBNGOvZLwxCB/3J4hru2AM8AL0FOANvAWBQFHKds8F/hnk8+0VB6LCJejz9g50sXNPM3h8hdMo8YR7j2AQgKoybuC8IQie98rka7pgDPAQlQjx7/mr2fgmhE2q6cYNzEwBdvsp9QRA6Za7SbOjkjjnAY9Cpidx9E0In1IR83pHgP2lOzSfUbKKT+4IgdMqrXljPHWuAB6FkyN98bA17/4QwU1XMbndkO2AkljiP+2IgdMq8uGGVbuvijjXAo7ywrpW9j0LojImzMp4ARIVxD/+FQOiMv3llA3eMAR7n/AVV7P0UwsyVd2Q+AdCl5L8QCDN3fNy01jZ1c8cX4HFeqWll76sQZqomjA8yCv4TppaOUROAAe4LgdAJ/2vJJu7YAnzCBUV4CwD9rhw4eFri82lPADRhfo//IiDM3AkzTGtDaw93XAE+YcmGNvY+C2HGisR30p4AqBnEvewXAKED/vmNzdwxBfiMi55ay95vIcxETZd3Z/AGQK7kvgAIM3VigWnVtvdyxxPgM97cuIO970KYiZowlqcV/MfEln8uKox+7guAMFNvfaeWO5YAn3LJ0+vY+y+EGdg39u6Kz6Y8AcDxvzAIHnFfibWts487jgCf8n5tO3sfhjATNd08N+UJgCaMO7kLDmGm3rV8K3cMAT7nsoV4CwB97d9TnwDoxuseKDiEaXvU/aVWc1c/d/wAPueD2g72vgxhBr6cWvTPt/ZXv6nVAwWHMG2nrajnjh0gIFy+qJq9P0OYlsJooZie/NP/DPN49kJDmIFfmlVm7egZ4I4bICDI+k77FEnufg1hOubGVk1JfgIgjF9yFxjCTCxY1cAdM0DA+PHiGvZ+DWFaxuRVyU8AdGM2e4EhTNPjHyy3Ovvw9A+cxWzAWwDoU4UsTHoCoH6xyV5gCNP0QXM7d6wAAeXnz+MtAPSjUiYV/CfNqfmE+g19/AWGMHVPfqjC6ukf5I4TIKBUNnZZeXH+fg5hSgqjl2J7Ek//ia+yFxbCNJ1f1sgdI0DA+c0rG9j7OYSpmqcbJ406AdBE4jrugkKYjqc9Umn1DeDpH7gLnSo5ocBk7+8QpqSQV4/+BkA37mMvKIRp+NTqZu7YAELCn5ZuZu/vEKaiJmQ8iTcAxgfcBYUwVb/+6GoLD/8gW2xt77UOm1nC3u8hTF65bOToX1R0gKYbnfwFhTA1n1vbwh0TQMi45Z1a9n4PYdIKuWPEjIDjdHkUeyEhTNHzFqyx8PAPsk1jV581ubCUvf9DmLRCHj786389cQl7ASFM0Tc37jZVOAkAACAASURBVOCOBSCk3PN+HXv/hzB55XdHmAAYf+UvIITJe/FTa7ljAAgx7b0D1pTZZez3AYRJKYybhp0ARIV8lL2AEKbgiq0d3DEAhJz4ygb2+wDCZNSEfGiECYCR4C4ghMlKaVkB4Ka7f9A6YU45+/0A4WjSLr+ho3++tT92AEC/SOlYS7d1cY/9ANjMMbez3xMQjirtBLCs/YZ6/X84e+EgTNLrX93IPeYD8CG9A4PW1+ZWsN8XEI7moTFjwhALAM1zuQsGYTJOmGFa61t7uMd8AD7Cgoom9nsDwtFNnLXPBCASl7/mLxiEo/vfb27mHusB2AfKRHn2/NXs9weEI6npxjX7fgLQjf/jLhiEo3n4fSVWfUcf91gPwJBQRkruewTCkVQTgH8MtQbgGe6CQTiad763lXuMB2BYKCPlBUVV7PcJhMOp6fKJfdcACKOUu2AQjuRR95dazV393GM8ACPy+oY29nsFwmEVRuKj0d+y9lMTgA72gkE4gvrKBu6xHYCkuHThOvb7BcKhlW0fif+5sVUR/kJBOLzHP1hudfYNcI/rACTF+7Xt7PcMhMM5scA85MMJQJ5unMRdIAhHck7Jdu4xHYCU+PHiGvb7BsKh1GaYx//r+3/cuJi7QBAO5ykPV1i9/TjwF/iL8u1ddsZK7vsHwn0Uie/ssQPA/B17gSAcxicqm7jHcgDS4tqXNrDfPxDuLeX92SMLoLybu0AQDuWZ81fbCVYA8CPrmrutQ2eY7PcRhHuqCePOPXMA4Bhg6Elfqm7lHsMByIgblmxiv48g3MtH9swBsNQDBYLwI36rqMrCwz/wO5vbeq0vFOAtAPSQQr62xwRAlrMXCMK9fHvTDu6xGwBH+OtbW9jvJwh3q+lGyZ5rABq5CwThnv5wUTX3mA2AY2zv7LOOLCxhv68gJDVh1O+M/oXFH4sKOchdIAh3m6tcWdfBPWYD4Ch0jgX3vQXhTuVATv7SA3PGzEwcyl8YCP/l1S+u5x6rAXCclu5+6+hZpez3F4SkNt2M5oyLyRO5CwLhbsfHTWtNUzf3WA2AK0xfUc9+j0FI2tkAI7HEedwFgXC3tGUKgKDS0TtgHftAGft9BqEWN75JOQB+yF0QCMmJBaa9ZQqAIDNLbmO/1yCM6PI/czSRuI67IBCSt75Tyz02A+A6dK7FqQ9XsN9vMNxqunENvQH4M3dBIPxiYanV1NXPPTYDkBUeLWtkv+dguI3o8sYcNQv4B3dBIKTFUSB7dPYN2KvSaX/6jp4B7uKEjr6BQev0eZXs9x0Ms/K2nKgwZvIXBIbZrzxYbgck4A5VTd3WbGOb9btXNlpnz19tv23Zuw0oVe1pj1RaP3q22rrn/TrrzY07rB4cwewqi6qa2e89GF41IeM5ahYwn7sgMNw+XLKdeywOHBtae6x/Lq+zvprBt+Yj7iuxrntpg/X6hjacyOgCVKXffGwN+/0Hw6qcR58AnuUvCAyrp6unzl5EF8fYqAL/ja9vcvwI2jPmVVpFlU1W/yDayklerWllvwdhWJULaRHga/wFgWF1cVUL9xgcCGp39Fq/f22j62fPnzV/tfX8OrSZk1z45Fr2+xCG0pfpE8AyDxQEhtDzF+C4Xyd4Vk2isp1iltYK1LUjZ4MTvLelnf1ehOFT0+VbtAgwwV0QGE5x3G9mbOvss656YT1b+315dpn1wrpW7moIBHT6Jff9CMOlmgAU0wRgNXdBYPi8Asf9ZkTJtk579wR3O5J01j3WBmSGrO+0T8HkbksYHjUhy3PU/2zkLggMl3lxwzIbOrnHXN9CW/QmD7GVj9OfPVeDrZwZwvk2B4ZPTTdqaBdAA3dBYLj8zSsbuMda37Kgosma4PJCv3T9VlGV/VkCpMfapm7XF3FC+C9lHb0BaOIvCAyLEwpMa31rD/dY60seK2/0/Gti2i7Y2IVJQLpc/+pG9jaE4VDF/u20C6CNuyAwPNL3YpA6r9S0+ubpkHZ3tPfic0A6bGrrsbMycrchDIXNOZowOjxQEBgCKbNcQweeDlOleGuHdbiqO+72S8X/XLgOqYTT5G9qkszdfjAECrkjR9NlN3tBYCikHPMgNdY1d1tH3e+tBX/JSms9MAVIHTqg6chCf034oP/UdKMzR/1DH3dBYPCdMrsMp86lCD1Bn/O4v3PF0yFEIHVosszddjDgCqOXUgEPshcEBt4HDBz4kyo3v7GZvd0ylXYs0CcMkBq0huLYB8rY2w8GWTmACQB03VMfrrB68T04JRavbWFvN6f82twKq7Wnn7tKfcf9cht728EgSxMAfAKALvvU6mbusdRX1Hf0+fa7/3DSscIgNegT0CkZHOcM4YjSJwAsAoRu+o3HVuMs+RT51csb2NvNDV+uxrkBqUKJn7jbDQZTexEgtgFCN126oY17DPUV725u93yyn3Q96aFyqwP5AVKCJs/ffMzfC0GhR6VtgEgEBN3ye0+v5R4/fQW98v33eZXs7eamd7y7lbuafQclgeJuNxhIm5EKGLoiPcUm6rH6OxXu/aCevd3clnYFVDZ2cVe177joybXsbQeDpZ0KGIcBQTe85sX13GOmr2jp7g/cwr/hvPK5Gu7q9h3v17aztxsMmjsPA8JxwNBRKWf9mqZu7jHTV9y1fCt7u2XTlXV4O5QqNHHibjcYHO3jgKPCWM1dEBgsb1q6mXus9BVNXf3W5MJwPP3v9vJF1dzV7jsqtndZ4+M4KAg6o3r4L6cJQIK7IDA4TppZYtXu6OUeK30FLYzjbjcO39vSzl31vgPHBUOn1HRZTLsAlnEXBAbHO9/DKu9UaOvpD+3BL5ctXMdd/b5jYyuOC4bOqCYAb1Eq4Ne4CwKD4TGzSpHyNUXmmNvZ243T8u3YEZAqOC4YOuTLtAvgWQ8UBAZAyl0OUuPM+avZ241TrBdJncauvtCtGYFuKBfSJ4D5/AWBfpdylvfgwJ+UoKx/3O3G7WEzS+wtkCA1cFwwzFw5jxYBFvAXBPrdp3HgT8pc+1Iwc/6n6iy8OUoZHBcMM1UThqCzAO7kLgj0t+c8vgYH/qRIc1e/NQGLuWxPn1dpofukziwcFwwz8+/0BuAmDxQE+tg3N+7gHgt9x/yyRvZ285JIG506vf2D1ldxXDBMU03I/5ej6ea13AWB/vUKJHRJiyuerWZvOy956zu13E3iS3BcMEzbmLwqJxpP/IC9INCX5sUNy2zo5B4DfQctesPr/4964pxyfAZIAxwXDNM1IuSl9AbgXO6CQH9KWclA6uCpbWiLt+IzQDq8XN3K3nbQf2px45s5kXjiBO6CQP85UT3Bbmrr4R77fMnPcKjLkP7PW1u4m8a34LhgmLLT5bE54+4tzmMvCPSdt+CbbVr0DQyGNvXvaNKCNpAey3FcMEzVAqnl5OQvPTCqywH2wkDfSOfW0wl2IHVWbO1gbz8vu74Vb5XS5SeL8WYJJqkw+nOKig7IITRhbGMvEPSNM1Y1cI91vmX6inr29vOyc0sbuZvIt9BxwbQwl7sNoR+UdTm70XSjjL9A0A+e8GC51dU3wD3W+ZbvP7OOvQ297C9f3MDdRL7md6/guGCYhEIae04AXmcvEPSFtIIdpAclbjn8Pnz/H0k6URJZJdOHFubiuGA4uvLVDycAajbwKH+BoNc9e/5qDM4Z8D4WaiUlcktkxl9xXDAcTWHM/dcbACHvYi8Q9LxLNrRxj22+ZraB3O3JOMfczt1UvgbHBcNRFfL2f70B0I3fshcIetpLnl7HPa75nv9asom9Hf3gH1U9gczAccFwJDWRuG7PNQAXcRcIetdcpVGP17KZct4CpGxNRjpdEmQGjguGI5kbN7/94QRgXEyeyF0g6F1/9TJWZmdK/+CgNWkmFgAmI52T0NOPxSaZcj+OC4bDSVkAdzNeLx/LXiDoSWkwrmlBcpZMqWzsYm9LP4mFgJmD44LhcB5SWHxwzp5owujgLhT0nn9DfnZHWFTVzN6WfnJeGRICOQEOnoJD2JqzN5pulHigYNBD0kpiWlEMMie+soG9Pf3krcv8d9YEfebZ2t7LXYyPQNt2z5q/mr09oadctc8EIKrLhR4oGPSQseJ67vErMNz8xmb29vSTV7+4nrvJ0qJWTQB0Ndmj9n62qsVq6eY/MwPHBcM91XRZtO8EQBj3cBcMesevPFhudSLlr2PgoJbU9PtOgDVN3faxz4fOMK3vPlll/d8Hddaqug62RFo4LhjuVhPGnUN8ApC/4i4Y9I6P4huso5yJ17ApSSdOBoGVKuhf/NS/gu+XZpVZ17+60X47QFv1sgWyUMIPFfLqISYA5rnsBYOe8D8eXW1/zwTOgcxsqdscoCOnX1jXap0xr/Ij13fYzBLr58/XWPPVZHt7p/trbfAWCu40cdYQnwDk4fwFg17wpepW1wejMNHa08/epn40aMmn+gYGrUdKG+3Pa3tf6/i4af3gmXX2mze3Jj7lOC4YKg+NGRP2mQDk5Fv7a7rRyV04yOtFT611ZfAJMxtae9jb1Y++WhPMiSitrZn6QZ39BmCo654ww7R+rJ7WaQsfTR6dBMcFh1whd+RY1n77TgDsnQDGKvYCQjYp5W/x1g5HBxxgWaXbkAQoHYsqg330NB3d+4vn149YBxMLTOuXL26wD+Jy4rPcxlYcFxxm1UP++0MG/11bAedxFxDy6detV17nvS1YgJWOs+Q27qbLCm9v2rHP+oChpE8HlJiLXuVnAo4LDq+aLucMOwHQhPEX7gJCHum149rmboeGNLAn9Cqbu339KJ1oFxbo7INpK+qH/Sywp/Smjrb1PVHZlNaZCds6+6wjC3EuRSgVxp9GmACY32MvIGTxz29sdmFYA8RTq5EGOB3/GsI01JRIiLYJJltHX55dZt22rNb+nJAKOC44pIrEd4adAIzT5VHsBYRZ94j7SqyGDqT8dYuHS7azt7EfpQVrYYW++Z/2yOifBXZLuwiuemG9/TkhGXb0DFhTZuO44NAp5OHDTgByiooOwKFA4TNMr1o5KFiFcwDSkfbIhxl6vX/ne1vtbIKp1Nt5C9ZYi6taRs06iOOCQybtAMi39h9+ArBzHcBy9oLCrHn8g+VZzUgWRmjLF3c7+9Ern6vhbjpPQPkQzk4jkyS9QaC8A8OtE6D/fgqOCw6Pwnh7xOBPqF80k72gMGvOLUXKX7fBBCA9KXMd2EmvCtb0pm5Cim8DSNo9MNvYNuREAMcFh0f1cC9GnQBounktd0Fhdvz3eZV2djLgLqK4nr2t/eiPnq3mbjrPUbG9y37Fn059njin3J7w73nP0z9+87H0/jzoM2PyqlEnALm6eQp7QWFWfBkpf7PCzATWAKTjFYswARgKCuC0ZTDdhD70aYB2puyeBuC44HA4LiZPHHUCMDm25qCoMHq5Cwvd9ZKn17EOYmHiAQO7ANLxh5gAjEhlY5d1bppvA8hvFVVZK3Zl/sRxwcFW02UPxfZRJwA71wFIg7vA0D0pkUiiHil/swW9duVucz9Kh+OAkaG1Abcuq037kB8aC3798gbraeSqCLbCSCQV/O0JgC7vZy8wdM1fqRseZI/Hy7HQKh2xCyB53ty4Y8hTBpOVMhDijIAAK4yZyU8AhLyavcDQFSeom7ymJbWsYSAzFq9tYW93P/prTFRTorGrz/qZmjRxtxv0oML4efITgOnyWPYCQ1e85Z1a7nEqdOAwoPS88fVN3E3nS+gUxcPvQ65/+C/zhHlM0hMAyhakZgwt3IWGznrU/aVWc5ez54uD0alq6mZvez+a/zYmq+myurErreRBMJA2j5oBcIjPAK95oODQQSklLcg+NOnibns/ihTVmdHVN2DdsGQTeztCZoXxYkrBf9cE4Hb2gkPHpJSf6RwdCjKHaj2dDG5hd465nbvpAgF9EkjmmGEYWG9JeQKQK4wLPFBw6JCU+APwcXwGK7TDKi2eBM5Quq3L+re5yPsfRjVhnpPyBGDs3RWfVb+5j7vwMHPPeXzNqCeDAXehpCvc/cBvvl/bzt1sgYKOAL7mxfXs7QqzKCX1u0d+OuUJAKEJuYL9AmDGvpPkGeHAPX7zygb2fuA3q7Fd1XHoOYBSU6d6xDD0qUK+m1bwJ9TsYSr7BcCMxIlq3oAWtHH3BT9JGeo6+3BMtVu8u7nd+vLsMvZ2hu6qHuLvSnsCoMWNi7kvAKbv+Lhp5wsH/DxZiVSrqUhZ7YC71Lb34tNUwM2Nm99OewIwYWrpmKguB7gvAqYnEql4h5V1Hez9wU9e/NRa7iYLBbQz6A+vbWRvb+iCwug/eFri82lPAAj1B61ivxCYspQJrE7N8IE3aOlGLoBUpKAEskeh3IZ1AQFT0433Mwr+hKbLu7kvBKbuP5cjiYrXOPkhbMNK1ukr6rmbK3S8vWmH9aVZWBcQGIW8PfMJgDDPYb8QmJLHPVBmtfdiAZXXuOoFbMFK1hfWtXI3VyjZ2NpjffOxNeztDzM3N2aemfEEYNKcmk9outHJfTEween8eeA9YsX17H3DL25uw+crLrr7B63rX8W6AD+rYnb75NiagzKeABBRIV/hviCYnKfPq7T6kPXHk7yxcQd7//CDx8wq5W4qoKAHCawL8KeaMBY7Evx3TgCMP3FfEEzOl6vx6tSr0ELAXA/0Ea/7/WfWcTcV2AXlC5iCfAH+U8jfOzcBmC6PZb8gOKrYOuU9+gcHrYrtXdbj5U3Wn9/YjEOBkvDSheus5bXtSATkEWpaeqyzcLSwrxw/zTjasQkAoelGNfdFweGlJ8tVdR3cY0XoocGSDl7637e3WBepCdkR9+EUtnSl18+0IO1PSzdb88sa7YkUTahA9qFFxVfjHAGfKNc6Gvx3TgCkzn9hcDive2kD9xgROigUUVCiY2up/r+CE/9c98jCEuuHi6rtbYJ0WFAv1rtkDappqve8OH8/gCMojKmOTwAicfkt9guDQ/qFAtNa34qDU9yGBsCSbZ32YSo/fa7GXqzG3fZhl865pzUD935Qb3826O3HhMBtXq1ptb5YiL7vWYX8huMTANpSENVlG/vFwX2k183AHRo6+qwnKpus372y0Tr2ASyG8rqUAZMOwHrQ3G5/jgHusLa52/rqw0hs5UFbp+SXftzxCQARFcbTHrhAuIdH3V9qNXf1c48HgYG2UFJGtL8vq7W/P2PVvr/9t7kV1n+/udl+asWiQmehHUfc7Qs/qiaMBa4E/10TgJ9zXyD8qDNWNnCPA76nraffWlTVbP365Q32hIq7TaE7TiwwrR89W209Utpov9kBmUMLXbnbFf5LTSR+4toEgE4W0nTZw32RcKenPFxhZ+0CqbOts88qqmyyrnyuxl5Dwd2WMLvSQrZzF6yx7nm/zqpq6ubujr6Fdh7hLZk3pNisJrmHuDYBIJAV0DvSGfMgeSi9bMGqBvsMdAxacE9pnzsdoLW6sYu7m/oOnHHhDTXdeM7V4E9oInEd94VCw/4+jR1Qo9PY1WenNL3oybUI+jApv/7oavvNAC10A6ND9YQEV14w8Qv3JwDTzWhUGP38FxtuaaEaGBp6vU+rwCkzIvYsw0w8f0GVve2zdgcOJxqJG1/fxN5WIbcvr7B4nOsTAHsSIOSbHrjg0EoLmcBH6ekftBZXtdjf9PE0Ap2WJpLfe3qtndJ5Rw92E+xNXXuvvQWTu51Cq5CvZCX4E1Fh/o79gkPq+LhpZ58DOzHqO62/vbUFB5bArEm7Ca55cb31Sk0rUhPvwT/e28reNmFV081rszYByI2tiqi/tI/7osPoH5ds4r7P2aHXsdNW1NtHH3O3Bwy3Jz9UYd29vM6qRtIhq7Wn3/rSLEzEsy2t/h+vl4/N2gSAiArjRe4LD5v0im1rezi/RVKCnpeqW+0sb/QWhLstINxTWmBKnwjoIKieEG/NLZTb2NsidAr5TFaDPxGJyyvZLzxk0srksFGrJjz6ygb7SYu7/iFMRkomRYviykP4qY7OYvjaXNyrWVXIH2Z9AhC9R35a04129osPicc9UGYfyRkG6IS3xWtbrMsXVWMVP/St9FbgkqfXWU+H7K0A5SfhrvuwaMdgFYuzPgEg1F/+OHcFhEVKXxp06jv67Lccx+NYXRgw6dv4rctqrY0hOLWT8pNQnhLuOg+FwpjLEvyJqEh8h70CQuAZ8yrtb+BBhVby0yvTiUjJCwMuvdGi44tpB0Fw72jLen1DG3tdh0FNN89lmwDkFBUdoOlyE3clBN0l69u472fHoVeiz1a1WN95ooq9fiHk8PRHKq1ZcltgP+3RRIe7joMsxV6KwXwTgBw7KdBd3BURZOkmChK0qO/2d7diuxCEu6RFg/lv11rrA/Z5gN7sIf22q/6dNfgT43R5VFTIQQ9URuCk14VmQyf3fewIpdu68JofwhGk+50yWb65MThpvq97aQN7vQZSFXMjsZIjueO/TVSXy9grJID+4bWN3PdvRtA3ThrMaFDDkwCEyUtHFdNx1X5f+7OhtQfHbbugJoyl3HH/Q9Rs5GruCgmak2aWWFt8egAJfd+nwes/Hl3NXo8Q+tlTH66w82BQlj2/8pc3t7DXY9CMCPlT7rj/IZF46WdUoVq5KyVIUl5tv9HU1W9v48P3fQid9ehZpdYd7261Gjr6uG/zlKHTOY8sxEFBDtqcV1j8Ke64/xE0Xc7wQMUEwi/PLrPafDTjb9i1f/+LhaXsdQdhkJ1QYFrXv7rRWtvczX3bpwSND9x1FxiFnM4d7/chN7ZqChYDOuPDJdu579ekqGnpsU/iw8I+CLPr7gWDtNLeD9BWR8pmyl1vgTCe+DJ3vB+SqDDeZq8cn/vvPkj6U7Kt034KwaE8EPJKi2tpIvBBbQf3sDAqc8zt7PXldz21+G9vtJj5Y+4K8ruUIcyrvLu5Hck9IPSodO7A0g3eTRpGZ3yc9giO8M5IjoN/kmVybM1Bmm40sFeST6Ub2Iu8X9tuXbYQgR9CP0h5+CnLphffI1K5uOvHv8q6KfmlH+eO8yOiCvp3/oryn/RNz2vf8yjwX4rAD6Ev/cZjqz03EaCyIP13empC5nPH91EZd29xnqbLHu7K8pv0Td0rUPKeC4pwk0IYBM+av9rOy+GVpUXvbWlnrxO/qWJqdyRemssd35NCFfgR7grzk5T0Z3Mbb9IfGhueX9dinfM4jvGEMIjSG4HFa1s8MRG44tlq9vrwk+rp/0HuuJ40ebpxEneF+ck7mZP+0BP/eQsQ+CEMg19/lP/TQPn2LvuzJ3dd+MVIPHECd1xPCWwJTM4ps8vY0nxS4P8WXvVDGErp0wDnRIA+e3LXgR/UdGMJdzxPmYiQl3JXnB+kvbHZBov7IIS7/fYTVSzbjze19SCJWDLG5IXc8Tx18q391cyljL3yPOzp8yrtvbHZYsXWDuzjhxAO6XefrLLe3pTdo4hveaeW/bq9rCZkOcVS7nCeFjglcGRfrM7OrNts6LQuX4RFNxDC0f2BekhYVZedzIJ0gNhR9+MMkeH01Kl/KVNY/DE1g9nIXYle9OKn1rp+c9Erthtf34TFNhDClKW3hRXbu1wfp2LF9ezX6kU1XW7yfOKf0Yjo8kbuivSalL87Ue/eDLuxq8+6bVmt9QV8X4MQZuChM0z7IWJru3vblLv6BqwT55SzX6vX1HTjD9zxO2PG3l3xWU3IJu7K9JK/eWWDKzcSnbilr2ywJuNYXgihgx42s8R+qGjpdmfH0ryyRvZr9JLq6b8xEi/9DHf8doSoMG7lrlCvSKte6dW8k9BCwrmljdaxOG4TQuiiR88qtR8yuvudXbzcPzho5yfgvj6vqB6a/4c7bjvGIYXFB6uLauauVC9Is2inoA0EtI/3a3Mr2K8LQhge6ZU9PXRQ4HYKWhTNfV2eUBgtB09LfJ47bjtKVJe3sVcsszR7bu5y5hUaJfGhU7+4rwlCGF7PmFdpP4Q4xUVPrmW/Jm41Xf4vd7x2HJrRREP+FmC2sS3jG2RlXYd9bDD3tUAI4W4pmRAd8uPE+JbrgethM4hP/7uJ6vIO9gpmkl7T92bw3ayqqdu65sX14b45IISelrYOlmW4dfBnz9WwXweXvjjyN13G6+Vj1UW2clcyh3TSXjrU7ui1t+HQdhzua4AQwtGkvCP0sLKxNb3FzmvVw04YxzvaLRfYp//d0AyHu6KzLX3XShU6IOjvy2rto4K5yw8hhKk6adfWwXQOO/vjkk3s5c++8r+547Pr0N5GdaF1/JWdHemV/Qe1ySf9oZX9RZVN2NIHIQyEtPh5ltxm9aVw7gklHjosRA8/mjDqKWcOd3zOCppu3MBd4dnyupeST/pDK/vPno+9sBDC4EmHn6Vy6uAd725lL3MW/S13XM4alN9YTQKqPVDprjqhwLRqWkb/DrZ21wI/7vJCCKHbJrtQkD4dHDMr+FlNVSysmRxbcxB3XM4q0Zi8irvi3fbWd0ZO+kM5Af721pZQLniBEIZXWih4/asbrYaOvhHHyIJVDexldVt/n/iXLkVFB0SFNLgr3y3piMvhkv5Q6l76JoZjMCGEYfaI+0qse96vGza1MG2d/urDAc50KowExULucMxCNJY4m70BXLJQDp30h76BIXUvhBD+y5MeKrcXPw81DVhQ0cRePrfMjZlncsdhVqK6XMjdCE5LM9aevWa0ZkOn9b2nkeYSQgiH84KiKmvF1o/umqLNA+c8Hry055owFnDHX3a0AvMITZfd3I3hpIv3yI1N21kokc/4OL7zQwjhaNLWaVoUveepqUvWt7GXy0k1Ibui0xKHccdfT6AmAHdzN4hTUk5sevbv7Buwj808sjA8e1khhNApD9uVSGhHz4A9CbhsYZDOQJG3ccddz0AJEFSl1PI3SuYur223T8c6JcgLVyCEMEue8ODOo4cDc1CQMDZTQjzuuOspokJezd4wGUrf/s9fUMVeDgghDJo0tgZhAbUmEj/hjrfeI9/aXxPGB9yNAyGEELqhinHLcyxrP+5wBp8rawAADSlJREFU60kisZLTo0IOcjcShBBC6KgqtkXi8gzuOOtpaGsEe0NBCCGETiqMudzx1fPkxldO0nSjk72xIIQQQicUcseYmYlDueOrL4jq5s3sDQYhhBA6IJ2Ayx1X/UP+0gM1XRZzNxqEEEKYibS4PbT5/tMlIkq+EhVGL3fjQQghhGnaNy4mT+SOp74kSBkCIYQQhk1k/EubCVPf/WRUyCr+RoQQQghTUBirJ82p+QR3HPU1UT1xFnIDQAgh9I0Us4T8Bnf8DASabjzA3qAQQghhMgpjJnfcDAyHFBYfTAcosDcqhBBCOLK1B09LfJ47bgaKXN38vgcaFkIIIRxWTU9cwh0vA0lUlwu5GxdCCCEcSk2XT3DHycAy7t7iPE0Y27gbGUIIIdxTFZvqtelmlDtOBhotblzM3dAQQgjhh9Kq/5i8kDs+hgJV2YXsDQ4hhBDq9PQv49xxMTTkFRZ/StNlBXejQwghDLcq+JdTTOKOi6EiTzdOUpOAHu7GhxBCGE5VDOqOxBMncMfDUBIV8s/cHQBCCGE4VROAP3LHwfCSb+2v6cYS7k4AIYQwZAr5CsUg7jAYasbMTByqZmGN7J0BQghhKNSEbBo/o+QL3PEPKCJCXsrdISCEEIZDykzLHffAHmi6nMPdKSCEEAZcIQu54x3Yi0i89DOabpSxdw4IIYTBVEgzeo/8NHe8A0MwTpdHRYXRwt5JIIQQBs1m9aA5mTvOgRHQdOMiOy0jf2eBEEIYBFVMwSl/PkETxp3sHQZCCGEwFMat3HENJEu+tb9qsBfZOw2EEEJ/S/v9i4oO4A5rIAUmTC0do+lGNXvngRBC6Es1YazPKywexx3PQBpQjmY1Cejk7kQQQgj9pSZkV17MPJk7joEMiMTlldwdCUIIod9M/II7fgEHUI15H39nghBC6Ac1XerccQs4xOTYmoM0YSzn7lQQQgi9rlw2Jb/049xxCzhIJF6aSws6+DsXhBBCL0oLx7XpZpQ7XgEXyJ1R8iU6xYm7k0EIIfSYlEV2ujyWO04BF8mNmWdquuxm72wQQgi9oTB6tbjxTe74BLKAJowrkC4YQgghxYKIkD/ljksgi1BqR/aOByGEkFVNyP/hjkcg21jWfqrxH+bufBBCCLmU8ykWcIcjwEFh8ceiQr7G3wkhhBBmU02Xb9AWce4wBBg5pLD4YE03Srg7I4QQwuyoxvyyiQXmIdzxB3iA6LTEYVFd1nF3SgghhC4r5Nbc+MpJ3HEHeAg69MHeB8rdOSGEELplMx0Sxx1vgAfRdPM0NTvc4YFOCiGE0EE1YXSME8Z/cMcZ4GEoGQQdA8ndWSGEEDqjfSx8LHE2d3wBPiCiy/ORLRBCCAOgMHqjuvwud1wBPiIi5KWq8/Sxd14IIYTpKYx+Ffwv544nwIfk6sbPVOcZYO/EEEIIU1PIQU03ruGOI8DHqI70W/aODCGEMHlV8M8Vxm+44wcIAGoWeQN7h4YQQpik5s3ccQMEiKgub+Pv1BBCCEfxFu54AQIIzSo90LkhhBAOoSbkXdxxAgSYqDBu4u7kEEIIPyqO9QVZQdPlr7A7AEIIPeDO1f5/4I4LIERoMfPHUeQJgBBCPu19/olfcMcDEEKi8cQPdmaZ8sCNACGEIVLTZU9uzLiMOw6AEBMVie/YeaY9cENACGEYpFTtWty4mHv8ByAnN2aeGdVlG/dNASGEQVc9cLVrwjyHe9wH4ENyZ6w6Vc1KG7lvDgghDLDNkVjJ6dzjPQD7kBczT47qss4DNwmEEAZLIbeOi8kTucd5AIZFddLDNSHL2W8WCCEMiJowSnPjKydxj+8AjMrEAvMQTTde575pIITQ76qxdMnB0xKf5x7XAUiaKfmlH1ed92HumwdCCP2qpss5NJZyj+cApI5l7ac68S2UqYr7RoIQQt+4c8y8hcZQ7mEcgIzI1Y2fUdIK9psKQgg9Lo2Vkbi8knvcBsAx1Iz2G6pzN3PfXBBC6FU1IZuieuIs7vEaAMfJja2aoulGDfdNBiGEXlONjdW5M0q+xD1OA+AakXhpblSX73HfbBBC6B3lsmiB1LjHZwDcJ3/pgZqQd/HfdBBCyKyQhVjpD0KHJhI/0YTRwX4DQghhllUPQV3RmLyKexwGgI1IPHECffvivhkhhDBbarrcQOencI+/ALAzXi8fGxXGS9w3JYQQuq0K/i9MmFo6hnvcBcA72EmDzJujuhzgvkEhhNBxhRyktU85+db+3MMtAJ5ETQC+G0W+AAhhsGzV9MQl3OMrAJ5n3PRVX9R0o8QDNy2EEGakpssK7O8HIAUi8dLPqEnAA9w3L4QQpq+8P3qP/DT3eAqAL4kIeakm5Hb+GxlCCJO2WQX/y7nHTwB8j509UBgveuCmhhDCkRXytTEzE4dyj5sABAfL2k/TjT9ouuxmv8EhhHBvhdEbpSN8scofAHeITpfHqhm2yX6zQwjhLjUhy8fF5Inc4yMAgWfC1Hc/qelGjPbVct/4EMKQK4y5WOgHQJaJ6PJ8NQnYyj4AQAhDp3oIaYjG5IXc4yAAoWXcvcV5ahKwiHswgBCGSGE8qU03o9zjHwBAkaub39eEsY19YIAQBlcht+bGjMu4xzsAwF5EC6Rmf4/jHiQghMGS1hupsQWH+ADgcWiGjrUBEEIn1HRZmRs3vs49rgEAkuSQwuKDd+4UMPq5BxAIoS/to9P7Js2p+QT3eAYASIM83ThJzeCLPTCYQAj946q8mHky9/gFAMiUwuKPRXXzZk0YHR4YWCCEHlXTjXblDTlFRQdwD1sAAAeh/NxYJAgh3EchBzVdFuXGV07iHqcAAC4SjSXOVrP8EvZBB0LIribkiohI/Dv3uAQAyBb5Sw+kw4WiwmjhHoAghAwKY4umm9fi8B4AQgpl84oKWYjdAhCGQ/XE36Xu+duRvx8AYJMnzGPoGyD34AQhdE9NGItV8D+ce7wBAHgQTZjnRHUpuQcqCKGjrkIyHwDA6BQVHRDVE79QTwvrPTBwQQjTVNON6oiQP8V3fgBASkzJL/04LRJCWmEI/eXOg8HMm5HFDwCQEbRYiAYTNbA0cw9sEMKRlG2UvndMbPnnuMcNAECAGHt3xWcxEYDQi+4M/BMLzEO4xwkAQIDZPRFQA04T/8AHYZhF4AcAMHDwtMTn1eCTr+mykX8ghDA8qvtuu/J/6NRP7nEAABBiaKERrTSmc8O5B0YIA+3OBbm3IPADALxFvrV/NCYvjOpyGftACWGQFLKKUndPjq05iPs2BwCAEYnE5RlqIrBQOcA+eELoU1XQf50m1TmWtR/3PQ0AACmhFZhHqEEspgmjg3swhdAParrssdNyx+XXuO9fAADImNzYqoga1P5XTQTquQdYCL2prFM/b6EDurjvVwAAcBzKLpirm99Xg92rUSEH+QddCHlVE+Niyrg5Yeq7n+S+PwEAICuMn2YcTXuYaUsT9yAMYVYVRgsdw63pxnHc9yEAALBhpxoWxs/Vk9BbeCsAA6vq26qPv0FbZvMKiz/Ffd8BAICnGD+j5At2lkHdqGYfsCF0QmFspjddkXjpZO77CwAAvE++tX9El+dHdTlPTQba2QdxCFNStqnAP1fTzXNxFC8AAKQJZRqkvdC0NYq2SPEP7hAOoTD6aXErveJXT/uf4b5vAAAgUIzXy8dqInGdphtLdg64Hhj4YZjto6CvCeOXE6aWjuG+PwAAIBTQgGufQSCMxXgzALPmzonnO5SaF3v2AQCAGTqZMBKXV6rB+Un7+yt3kIBBs9X+BCUSP8FBPAAA4FWKig6gswh25Rgo90DwgH5UyHW0V5/Wn1ACK+5uDQAAIEXyhHmMphs3qMnA89hRAIdVyB2qfzxHr/bH6fIo7n4LAADAQehJLqonztKEcaeaEKzAQsIQq9pe9YMPVOC/PTdmnomnfAAACBG0XUsT5jkqINxir+bGYsLgSgHfzrtvxOg8CqzaBwAA8CE0IYjEEuepgPF35ct2znbuwAXTtVm130tROmGPJnn3yE9z9y8AAAB+Id/aPze2akpUT/zCXhCmS6mCSq8HghvcU2oTYSTUP99H50rkzij5Uo5l7cfdfQAAAASJwuKPReOJL9s5CHQjpoLOO7SAjD0IhkV7sZ4s3plq1/gD7fjAUboAAADYGKuvHE+vmiko7XxboCYGyEmQtirId6u6LKP99+rfb6Hv9jTxQm59AAAA3sey9rNPOIwlzlbB7BrKTWAnK7JfV2NyoGylulBB/glVP/+gOqJdGofGjAl4hQ8AACCwTCwwD1FB7zg1GfhuJC5/rX7eQa+2o0K+pv57ifr3OuWABwJ1ilKZZZ19Depa7GtS16YC/a/oWumaKXsjd/0DAAAA3sXObFiaa08UhPxGbsy4jJ6UI7q8kfawa0LG6dhkFWSfpq2M6ufbO7e7yQrKZqf+/+3Kpg/Vjc59X7cbnR/5Ner32L9X/Rm7/qy3dv3ZT9tHNNPfqf7uXWW4Wv38TyoblZHKitf0AHif/w/fBRm5YhkkMQAAAABJRU5ErkJggg==;" parent="1" vertex="1">
          <mxGeometry x="240" y="440" width="40" height="40" as="geometry" />
        </mxCell>
        <mxCell id="HipKkYMY8DTguzKFv34O-84" style="edgeStyle=orthogonalEdgeStyle;rounded=0;orthogonalLoop=1;jettySize=auto;html=1;exitX=0.5;exitY=1;exitDx=0;exitDy=0;" parent="1" target="HipKkYMY8DTguzKFv34O-10" edge="1">
          <mxGeometry relative="1" as="geometry">
            <mxPoint x="530" y="430" as="targetPoint" />
            <Array as="points">
              <mxPoint x="434" y="400" />
              <mxPoint x="523" y="400" />
            </Array>
            <mxPoint x="434.1399999999999" y="362" as="sourcePoint" />
          </mxGeometry>
        </mxCell>
        <mxCell id="vhEITEvF5-Utvm210V1t-13" value="Lan2" style="edgeLabel;html=1;align=center;verticalAlign=middle;resizable=0;points=[];" parent="HipKkYMY8DTguzKFv34O-84" vertex="1" connectable="0">
          <mxGeometry x="0.6799" relative="1" as="geometry">
            <mxPoint as="offset" />
          </mxGeometry>
        </mxCell>
        <mxCell id="HipKkYMY8DTguzKFv34O-90" style="edgeStyle=orthogonalEdgeStyle;rounded=0;orthogonalLoop=1;jettySize=auto;html=1;exitX=0.5;exitY=1;exitDx=0;exitDy=0;" parent="1" target="HipKkYMY8DTguzKFv34O-1" edge="1">
          <mxGeometry relative="1" as="geometry">
            <mxPoint x="110" y="410" as="targetPoint" />
            <Array as="points">
              <mxPoint x="434" y="400" />
              <mxPoint x="120" y="400" />
            </Array>
            <mxPoint x="434.1399999999999" y="362" as="sourcePoint" />
          </mxGeometry>
        </mxCell>
        <mxCell id="vhEITEvF5-Utvm210V1t-11" value="Lan1" style="edgeLabel;html=1;align=center;verticalAlign=middle;resizable=0;points=[];" parent="HipKkYMY8DTguzKFv34O-90" vertex="1" connectable="0">
          <mxGeometry x="0.8626" y="-2" relative="1" as="geometry">
            <mxPoint as="offset" />
          </mxGeometry>
        </mxCell>
        <mxCell id="HipKkYMY8DTguzKFv34O-97" style="edgeStyle=orthogonalEdgeStyle;rounded=0;orthogonalLoop=1;jettySize=auto;html=1;exitX=0.5;exitY=1;exitDx=0;exitDy=0;" parent="1" target="HipKkYMY8DTguzKFv34O-11" edge="1">
          <mxGeometry relative="1" as="geometry">
            <Array as="points">
              <mxPoint x="434" y="400" />
              <mxPoint x="720" y="400" />
            </Array>
            <mxPoint x="434.1399999999999" y="362" as="sourcePoint" />
          </mxGeometry>
        </mxCell>
        <mxCell id="vhEITEvF5-Utvm210V1t-14" value="Lan3" style="edgeLabel;html=1;align=center;verticalAlign=middle;resizable=0;points=[];" parent="HipKkYMY8DTguzKFv34O-97" vertex="1" connectable="0">
          <mxGeometry x="0.8117" y="-1" relative="1" as="geometry">
            <mxPoint as="offset" />
          </mxGeometry>
        </mxCell>
        <mxCell id="gjh9Q4tyxsNngksii84U-12" style="edgeStyle=orthogonalEdgeStyle;rounded=0;orthogonalLoop=1;jettySize=auto;html=1;exitX=0.5;exitY=1;exitDx=0;exitDy=0;" parent="1" target="HipKkYMY8DTguzKFv34O-7" edge="1">
          <mxGeometry relative="1" as="geometry">
            <Array as="points">
              <mxPoint x="434" y="400" />
              <mxPoint x="321" y="400" />
            </Array>
            <mxPoint x="434.1399999999999" y="362" as="sourcePoint" />
          </mxGeometry>
        </mxCell>
        <mxCell id="vhEITEvF5-Utvm210V1t-12" value="Lan1" style="edgeLabel;html=1;align=center;verticalAlign=middle;resizable=0;points=[];" parent="gjh9Q4tyxsNngksii84U-12" vertex="1" connectable="0">
          <mxGeometry x="0.7062" y="-1" relative="1" as="geometry">
            <mxPoint as="offset" />
          </mxGeometry>
        </mxCell>
        <mxCell id="HipKkYMY8DTguzKFv34O-92" value="Tp-link 1GB/s&lt;br&gt;8 port switch" style="text;html=1;align=center;verticalAlign=middle;resizable=0;points=[];autosize=1;strokeColor=none;fillColor=none;" parent="1" vertex="1">
          <mxGeometry x="286.2399999999999" y="300" width="100" height="40" as="geometry" />
        </mxCell>
        <mxCell id="HipKkYMY8DTguzKFv34O-118" value="" style="rounded=1;whiteSpace=wrap;html=1;" parent="1" vertex="1">
          <mxGeometry x="240" y="670" width="180" height="300" as="geometry" />
        </mxCell>
        <mxCell id="HipKkYMY8DTguzKFv34O-119" value="" style="endArrow=none;dashed=1;html=1;dashPattern=1 3;strokeWidth=2;rounded=0;" parent="1" edge="1">
          <mxGeometry width="50" height="50" relative="1" as="geometry">
            <mxPoint x="10" y="390" as="sourcePoint" />
            <mxPoint x="820" y="390" as="targetPoint" />
          </mxGeometry>
        </mxCell>
        <mxCell id="HipKkYMY8DTguzKFv34O-120" value="&lt;font style=&quot;font-size: 24px;&quot;&gt;Devices&lt;/font&gt;" style="text;html=1;align=left;verticalAlign=middle;resizable=0;points=[];autosize=1;strokeColor=none;fillColor=none;" parent="1" vertex="1">
          <mxGeometry x="10.290000000000001" y="357" width="110" height="40" as="geometry" />
        </mxCell>
        <mxCell id="HipKkYMY8DTguzKFv34O-128" value="&lt;font style=&quot;font-size: 24px;&quot;&gt;Services &amp;amp; Virtual Machines&lt;/font&gt;" style="text;html=1;align=left;verticalAlign=middle;resizable=0;points=[];autosize=1;strokeColor=none;fillColor=none;" parent="1" vertex="1">
          <mxGeometry x="19.08" y="627" width="320" height="40" as="geometry" />
        </mxCell>
        <mxCell id="HipKkYMY8DTguzKFv34O-144" value="" style="endArrow=none;dashed=1;html=1;dashPattern=1 3;strokeWidth=2;rounded=0;" parent="1" edge="1">
          <mxGeometry width="50" height="50" relative="1" as="geometry">
            <mxPoint x="20.289999999999996" y="658" as="sourcePoint" />
            <mxPoint x="819.72" y="658" as="targetPoint" />
          </mxGeometry>
        </mxCell>
        <mxCell id="gjh9Q4tyxsNngksii84U-2" value="" style="shape=image;verticalLabelPosition=bottom;labelBackgroundColor=default;verticalAlign=top;aspect=fixed;imageAspect=0;image=data:image/svg+xml,PHN2ZyB4bWxucz0iaHR0cDovL3d3dy53My5vcmcvMjAwMC9zdmciIGZpbGw9Im5vbmUiIHZpZXdCb3g9IjAgMCAyNTYgMjU2IiBoZWlnaHQ9IjI1NiIgd2lkdGg9IjI1NiI+JiN4YTs8cGF0aCBmaWxsPSJ1cmwoI3BhaW50MF9saW5lYXIpIiBkPSJNMjIxIDYyLjQzNzNDMjIxIDYxLjQzMjYgMjIwLjY3NyA2MC4zMTgxIDIyMC4xNDEgNTkuNDY4NEMyMTkuNTYxIDU4LjU0OSAyMTguOTAxIDU3LjUwMTQgMjE4LjkgNTcuNUwxNzEgOS4zNTM1MkMxNjkuNTU1IDcuOTU3MzMgMTU4LjI5MSAyIDE1Ni4yNjkgMkg0MS4xOTIzQzM3LjIyMDIgMiAzNCA1LjI5MjQxIDM0IDkuMzUzNTJWMjQ1LjY0NkMzNCAyNDkuNzA4IDM3LjIyMDIgMjUzIDQxLjE5MjMgMjUzSDIxMy44MDhDMjE3Ljc4IDI1MyAyMjEgMjQ5LjcwOCAyMjEgMjQ1LjY0NlY2OC4xODE2QzIyMSA2Ni40ODY0IDIyMSA2NS43MDgzIDIyMSA2Mi40MzczWk0xNjMuNDYyIDM0LjQ2NDJDMTYzLjQ2MiAzMS43NzU0IDE2Ni43MjYgMzAuNDQ0MyAxNjguNjA2IDMyLjM2NjVMMTkxLjQ1OCA1NS43MzA0QzE5My4zMTYgNTcuNjI5NyAxOTEuOTcgNjAuODI4MSAxODkuMzEzIDYwLjgyODFIMTY2LjQ2MkMxNjQuODA1IDYwLjgyODEgMTYzLjQ2MiA1OS40ODUgMTYzLjQ2MiA1Ny44MjgxVjM0LjQ2NDJaTTU1IDIzNS41QzUzLjM0MzEgMjM1LjUgNTIgMjM0LjE1NyA1MiAyMzIuNVYyMi41QzUyIDIwLjg0MzEgNTMuMzQzMSAxOS41IDU1IDE5LjVIMTQxLjVDMTQzLjE1NyAxOS41IDE0NC41IDIwLjg0MzEgMTQ0LjUgMjIuNVY2MC44MjgxQzE0NC41IDY0Ljg4OTIgMTU5LjQ4OSA3OSAxNjMuNDYyIDc5SDIwMEMyMDEuNjU3IDc5IDIwMyA4MC4zNDMxIDIwMyA4MlYyMzIuNUMyMDMgMjM0LjE1NyAyMDEuNjU3IDIzNS41IDIwMCAyMzUuNUg1NVoiLz4mI3hhOzxwYXRoIGZpbGw9InVybCgjcGFpbnQxX2xpbmVhcikiIGQ9Ik0xMjIuMzMzIDE0Ny40MzdDMTE2LjEyOCAxNDYuOTA0IDExMC4wNzUgMTQ1LjQ0NSAxMDQuMzcxIDE0My4xMTdDMTAzLjczMSAxNDYuODI5IDEwMy4zMTcgMTUwLjU3MyAxMDMuMTI1IDE1NC4zMzNIMTIyLjMzM1YxNDcuNDM3Wk0xMzMgMTQ3LjQ0QzEzOS4yIDE0Ni45MDcgMTQ1LjI1NiAxNDUuNDUzIDE1MC45NzEgMTQzLjEzM0MxNTEuNjA1IDE0Ni44NCAxNTIuMDE2IDE1MC41ODEgMTUyLjIwOCAxNTQuMzMzSDEzM1YxNDcuNDRaTTEyMi4zMzMgMTc0LjU2M0MxMTYuMjggMTc1LjA4IDExMC4zNzEgMTc2LjQ4IDEwNC43ODkgMTc4LjcwN0MxMDMuOTEyIDE3NC4xODQgMTAzLjM1NyAxNjkuNiAxMDMuMTI1IDE2NUgxMjIuMzMzVjE3NC41NjNaTTEzMyAxNzQuNTZDMTM5LjA1MyAxNzUuMDggMTQ0Ljk2MyAxNzYuNDggMTUwLjU0NCAxNzguNzA3QzE1MS40MjEgMTc0LjE4MSAxNTEuOTc2IDE2OS42IDE1Mi4yMDggMTY1SDEzM1YxNzQuNTZaTTEyMi4zMzMgMTg1LjI3NUMxMTcuMjEzIDE4NS44MDMgMTEyLjIyNyAxODcuMDg4IDEwNy41MjggMTg5LjA3MkMxMDguNTMzIDE5Mi4wNTMgMTA5Ljc3MSAxOTQuOTU3IDExMS4yMTMgMTk3Ljc3M0MxMTIuMzMzIDE5OS45MzMgMTEzLjY0IDIwMi4wMTMgMTE1LjEzMyAyMDMuOTZDMTE2LjM4NyAyMDUuNTg3IDExNy44IDIwNy4wOCAxMTkuMzczIDIwOC4zODdDMTIwLjI5MSAyMDkuMTMzIDEyMS4yNzcgMjA5Ljc2OCAxMjIuMzMzIDIxMC4zMDRWMTg1LjI3NVpNMTMzIDE4NS4yNzVDMTM4LjEyIDE4NS44MDUgMTQzLjEwNyAxODcuMDk2IDE0Ny44MDMgMTg5LjA4M0MxNDYuNzk3IDE5Mi4wNTkgMTQ1LjU2MyAxOTQuOTYgMTQ0LjEyIDE5Ny43NzNDMTQzIDE5OS45MzMgMTQxLjY5MyAyMDIuMDEzIDE0MC4yIDIwMy45NkMxMzguOTQ3IDIwNS41ODcgMTM3LjUzMyAyMDcuMDggMTM1Ljk2IDIwOC4zODdDMTM1LjA0MyAyMDkuMTMzIDEzNC4wNTYgMjA5Ljc2OCAxMzMgMjEwLjMwNFYxODUuMjc1Wk0xMjIuMzMzIDEzNi43MjVDMTE2LjkzMSAxMzYuMTY1IDExMS42NzUgMTM0Ljc2IDEwNi43NTcgMTMyLjU4NEMxMDcuOTA3IDEyOC43ODkgMTA5LjM5NyAxMjUuMTA0IDExMS4yMTMgMTIxLjU2QzExMi4zMzMgMTE5LjQgMTEzLjY0IDExNy4zMiAxMTUuMTMzIDExNS4zNzNDMTE2LjM4NyAxMTMuNzQ3IDExNy44IDExMi4yNTMgMTE5LjM3MyAxMTAuOTQ3QzEyMC4yOTEgMTEwLjIgMTIxLjI3NyAxMDkuNTY1IDEyMi4zMzMgMTA5LjAyOVYxMzYuNzI1Wk0xMzMgMTM2LjcyNUMxMzguMzk3IDEzNi4xNjggMTQzLjY1NiAxMzQuNzczIDE0OC41ODQgMTMyLjYxMUMxNDcuNDM1IDEyOC44MTEgMTQ1Ljk0MSAxMjUuMTE1IDE0NC4xMiAxMjEuNTZDMTQzIDExOS40IDE0MS42OTMgMTE3LjMyIDE0MC4yIDExNS4zNzNDMTM4Ljk0NyAxMTMuNzQ3IDEzNy41MzMgMTEyLjI1MyAxMzUuOTYgMTEwLjk0N0MxMzUuMDQzIDExMC4yIDEzNC4wNTYgMTA5LjU2NSAxMzMgMTA5LjAyOVYxMzYuNzI1Wk0xNzkuMzkyIDE1NC4zMzNDMTc4LjUwOSAxNDUuNzk1IDE3NS41MjMgMTM3LjYyNCAxNzAuNzQxIDEzMC41NDRMMTY5LjI2NyAxMzEuODUzQzE2Ni42NDggMTM0LjE4MSAxNjMuODUzIDEzNi4yNjkgMTYwLjkwMSAxMzguMDc3QzE2MS45NzYgMTQzLjQzNSAxNjIuNjM3IDE0OC44NzUgMTYyLjg4OCAxNTQuMzMzSDE3OS4zOTJaTTE3OS4zOTIgMTY1QzE3OC40NCAxNzQuMjA1IDE3NS4wNDUgMTgyLjk4NCAxNjkuNiAxOTAuNDMyQzE2Ni43NDEgMTg3Ljg1NiAxNjMuNjY3IDE4NS41NjUgMTYwLjQwMyAxODMuNjE2QzE2MC40NDUgMTgzLjQzNyAxNjAuNDgzIDE4My4yNTkgMTYwLjUyIDE4My4wOEMxNjEuODIxIDE3Ny4xMzYgMTYyLjYwOCAxNzEuMDggMTYyLjg4OCAxNjVIMTc5LjM5MlpNNzUuOTQxMyAxNjVDNzYuODkzMyAxNzQuMjExIDgwLjI5MDcgMTgyLjk4OSA4NS43Mzg3IDE5MC40NEM4OC41OTQ3IDE4Ny44NjQgOTEuNjY2NyAxODUuNTcxIDk0LjkzMzMgMTgzLjYyMUM5NC44ODggMTgzLjQ0IDk0Ljg1MDcgMTgzLjI2MSA5NC44MTMzIDE4My4wOEM5My41MTIgMTc3LjEzNiA5Mi43MjUzIDE3MS4wOCA5Mi40NDUzIDE2NUg3NS45NDEzWk0xMDMuNDI5IDIwNS42NTNDOTkuNjUzMyAyMDMuNjgzIDk2LjExNDcgMjAxLjIzMiA5Mi45MDEzIDE5OC4zNTVDOTQuNTQxMyAxOTYuODc1IDk2LjI2NCAxOTUuNTA5IDk4LjA2NjcgMTk0LjI2N0M5OS4xMTIgMTk3LjEyIDEwMC4zMzkgMTk5LjkwOSAxMDEuNzIgMjAyLjYyN0MxMDIuMjUxIDIwMy42NTkgMTAyLjgxNiAyMDQuNjcyIDEwMy40MjkgMjA1LjY1M1pNMTU3LjI2NyAxOTQuMjY5QzE1OS4wNjkgMTk1LjUxMiAxNjAuNzk3IDE5Ni44NzUgMTYyLjQzNyAxOTguMzQ5QzE1OS4yMjEgMjAxLjIyOSAxNTUuNjgzIDIwMy42ODMgMTUxLjkwNCAyMDUuNjUzQzE1Mi41MTcgMjA0LjY3MiAxNTMuMDgzIDIwMy42NTkgMTUzLjYxMyAyMDIuNjI3QzE1NC45OTUgMTk5LjkxMiAxNTYuMjIxIDE5Ny4xMjMgMTU3LjI2NyAxOTQuMjY5Wk0xMDMuMzc5IDExMy43NjVDOTkuMDQ1MyAxMTYuMDI0IDk1LjA1ODcgMTE4LjkzMSA5MS41MzYgMTIyLjM3M0M5My4zNDkzIDEyNC4xMzEgOTUuMjgyNyAxMjUuNzQ0IDk3LjMwMTMgMTI3LjIyMUM5OC41MDQgMTIzLjYxNiA5OS45OTIgMTIwLjEwNyAxMDEuNzIgMTE2LjcwN0MxMDIuMjM1IDExNS43MDQgMTAyLjc4NCAxMTQuNzIgMTAzLjM3OSAxMTMuNzY1Wk0xNTguMDEzIDEyNy4xNzZDMTU5LjQ2NCAxMjYuMTcxIDE2MC44NDUgMTI1LjA2MSAxNjIuMTczIDEyMy44OEwxNjMuODkzIDEyMi4zNTVDMTYwLjMxMiAxMTguODg4IDE1Ni4yODUgMTE1Ljk4MSAxNTEuOTMxIDExMy43MjVDMTUyLjUzNiAxMTQuNjkzIDE1My4wOTEgMTE1LjY5MSAxNTMuNjEzIDExNi43MDdDMTU1LjMzMyAxMjAuMDg4IDE1Ni44MTYgMTIzLjU4NCAxNTguMDEzIDEyNy4xNzZaTTc3LjQ1MzMgMTQ2LjEyQzc2LjY1ODcgMTQ4Ljk0NyA3My43MTIgMTUwLjU5NSA3MC44OCAxNDkuOEM2OC4wNDggMTQ5LjAwNSA2Ni4zOTIgMTQ2LjA1MyA2Ny4xODY3IDE0My4yMTNMNjcuNDggMTQyLjE0N0M2OC4yOTA3IDEzOS4zMDcgNzEuMjQ4IDEzNy42NTEgNzQuMDggMTM4LjQ1M0M3Ni45MTIgMTM5LjI1NiA3OC41NTczIDE0Mi4yIDc3Ljc0NjcgMTQ1LjAyN0w3Ny40NTMzIDE0Ni4xMlpNNzUuNjY2NyAxNTQuMzMzQzY5Ljc3ODcgMTU0LjMzMyA2NSAxNTYuNzIzIDY1IDE1OS42NjdDNjUgMTc2LjI4IDcxLjYxMzMgMTkyLjIyNyA4My4zNDY3IDIwMy45ODdDOTUuMTA2NyAyMTUuNzIgMTExLjA1MyAyMjIuMzMzIDEyNy42NjcgMjIyLjMzM0MxNDQuMjggMjIyLjMzMyAxNjAuMjI3IDIxNS43MiAxNzEuOTg3IDIwMy45ODdDMTgzLjcyIDE5Mi4yMjcgMTkwLjMzMyAxNzYuMjggMTkwLjMzMyAxNTkuNjY3QzE5MC4zMzMgMTQzLjA1MyAxODMuNzIgMTI3LjEwNyAxNzEuOTg3IDExNS4zNDdDMTYwLjIyNyAxMDMuNjEzIDE0NC4yOCA5NyAxMjcuNjY3IDk3QzEwNi4wOTMgOTcuMDI2NyA4NS45ODY3IDEwOC4xNDcgNzQuNTQ2NyAxMjYuNDRDNzIuOTg2NyAxMjguOTI4IDczLjc0NjcgMTMyLjIxMyA3Ni4yNCAxMzMuNzczQzc4LjczMzMgMTM1LjMzMyA4Mi4wMjY3IDEzNC41ODEgODMuNTg2NyAxMzIuMDkzQzgzLjkxNzMgMTMxLjU2NSA4NC4yNTg3IDEzMS4wNDMgODQuNjEwNyAxMzAuNTMxQzg3LjYzNzMgMTMzLjM5MiA5MC45MjI3IDEzNS45MjMgOTQuNDI5MyAxMzguMDY3QzkzLjM1NzMgMTQzLjQzNSA5Mi42OTYgMTQ4Ljg2NyA5Mi40NDUzIDE1NC4zMzNINzUuNjY2N1oiIGNsaXAtcnVsZT0iZXZlbm9kZCIgZmlsbC1ydWxlPSJldmVub2RkIi8+JiN4YTs8ZGVmcz4mI3hhOzxsaW5lYXJHcmFkaWVudCBncmFkaWVudFVuaXRzPSJ1c2VyU3BhY2VPblVzZSIgeTI9IjEyNy41IiB4Mj0iMTg5LjEwOSIgeTE9IjEyNy41IiB4MT0iNTEuMzk1MyIgaWQ9InBhaW50MF9saW5lYXIiPiYjeGE7PHN0b3Agc3RvcC1jb2xvcj0iIzU1NzBGRiIvPiYjeGE7PHN0b3Agc3RvcC1jb2xvcj0iIzRERDNGRiIgb2Zmc2V0PSIxIi8+JiN4YTs8L2xpbmVhckdyYWRpZW50PiYjeGE7PGxpbmVhckdyYWRpZW50IGdyYWRpZW50VW5pdHM9InVzZXJTcGFjZU9uVXNlIiB5Mj0iMTU5LjY2NyIgeDI9IjE2OC45NTkiIHkxPSIxNTkuNjY3IiB4MT0iNzYuNjU4OSIgaWQ9InBhaW50MV9saW5lYXIiPiYjeGE7PHN0b3Agc3RvcC1jb2xvcj0iIzU1NzBGRiIvPiYjeGE7PHN0b3Agc3RvcC1jb2xvcj0iIzRERDNGRiIgb2Zmc2V0PSIxIi8+JiN4YTs8L2xpbmVhckdyYWRpZW50PiYjeGE7PC9kZWZzPiYjeGE7PC9zdmc+;" parent="1" vertex="1">
          <mxGeometry x="249.61" y="772.5" width="45" height="45" as="geometry" />
        </mxCell>
        <mxCell id="gjh9Q4tyxsNngksii84U-3" value="Webpage:&lt;br&gt;Personal Website&lt;br&gt;Port : 80&lt;br&gt;www.example.home&lt;br&gt;www.example.com" style="text;html=1;align=left;verticalAlign=middle;resizable=0;points=[];autosize=1;strokeColor=none;fillColor=none;" parent="1" vertex="1">
          <mxGeometry x="302.57" y="760" width="130" height="90" as="geometry" />
        </mxCell>
        <mxCell id="gjh9Q4tyxsNngksii84U-11" value="Caddy:&lt;br&gt;Web server &amp;amp;&lt;br&gt;Reverse Proxy" style="text;html=1;align=left;verticalAlign=middle;resizable=0;points=[];autosize=1;strokeColor=none;fillColor=none;" parent="1" vertex="1">
          <mxGeometry x="303.58000000000004" y="706.8199999999999" width="100" height="60" as="geometry" />
        </mxCell>
        <mxCell id="El2BdNSs_uyovOTh-8Hb-23" style="edgeStyle=orthogonalEdgeStyle;rounded=0;orthogonalLoop=1;jettySize=auto;html=1;" parent="1" source="El2BdNSs_uyovOTh-8Hb-21" edge="1">
          <mxGeometry relative="1" as="geometry">
            <Array as="points">
              <mxPoint x="91" y="240" />
              <mxPoint x="185" y="240" />
            </Array>
            <mxPoint x="190" y="240" as="targetPoint" />
          </mxGeometry>
        </mxCell>
        <mxCell id="El2BdNSs_uyovOTh-8Hb-21" value="" style="html=1;verticalLabelPosition=bottom;align=center;labelBackgroundColor=#ffffff;verticalAlign=top;strokeWidth=2;shadow=0;dashed=0;shape=mxgraph.ios7.icons.cloud;" parent="1" vertex="1">
          <mxGeometry x="19.07999999999999" y="110" width="140" height="80" as="geometry" />
        </mxCell>
        <mxCell id="El2BdNSs_uyovOTh-8Hb-22" value="&lt;font style=&quot;font-size: 14px;&quot;&gt;The Internet&lt;/font&gt;" style="text;html=1;align=center;verticalAlign=middle;resizable=0;points=[];autosize=1;strokeColor=none;fillColor=none;" parent="1" vertex="1">
          <mxGeometry x="35.08" y="150" width="100" height="30" as="geometry" />
        </mxCell>
        <mxCell id="El2BdNSs_uyovOTh-8Hb-24" value="" style="endArrow=none;html=1;rounded=0;strokeWidth=3;shadow=0;" parent="1" edge="1">
          <mxGeometry width="50" height="50" relative="1" as="geometry">
            <mxPoint x="10.29" y="600" as="sourcePoint" />
            <mxPoint x="830.29" y="600" as="targetPoint" />
          </mxGeometry>
        </mxCell>
        <mxCell id="h34N8ByZbucSesH93EYC-12" style="edgeStyle=orthogonalEdgeStyle;rounded=0;orthogonalLoop=1;jettySize=auto;html=1;exitX=0.5;exitY=1;exitDx=0;exitDy=0;" parent="1" source="HipKkYMY8DTguzKFv34O-118" target="HipKkYMY8DTguzKFv34O-118" edge="1">
          <mxGeometry relative="1" as="geometry" />
        </mxCell>
        <mxCell id="h34N8ByZbucSesH93EYC-15" style="shape=image;editableCssRules=.*;image=data:image/svg+xml,PHN2ZyB2aWV3Qm94PSIwIDAgMjQgMjQiIHhtbG5zPSJodHRwOi8vd3d3LnczLm9yZy8yMDAwL3N2ZyI+PHN0eWxlPip7ZmlsbDojRTU3MDAwfTwvc3R5bGU+PHBhdGggZD0iTTQuOTI4IDEuODI1Yy0xLjA5LjU1My0xLjA5LjY0LS4wNyAxLjc4IDUuNjU1IDYuMjk1IDcuMDA0IDcuNzgyIDcuMTA3IDcuNzgyLjEzOS4wMTcgNy45NzEtOC41NDIgOC4wNTgtOC44MDEuMDM0LS4wNy0uMjA4LS4zMTItLjUxOS0uNTM2LS40MTUtLjMxMi0uODY0LS40MzMtMS43MTItLjQ2Ny0xLjU5LS4xMDQtMi4xNDQuMjQyLTQuMTE1IDIuNDU1LS44OTkgMS4wMDMtMS42NiAxLjgzMy0xLjY2IDEuODMzLS4wMTcgMC0uNzYtLjgxMy0xLjY0Mi0xLjc5OFM4LjQ3MyAyLjEgOC4xMjcgMS45MWMtLjc5Ni0uNDUtMi40MjEtLjQ4NC0zLjItLjA4NnpNMS4yOTcgNC4zNjdDLjQ1IDQuNjk1IDAgNS4wMDcgMCA1LjI0OGMwIC4xMjEgMS4zMzEgMS42NzggMi45NCAzLjQ1OSAxLjYyNSAxLjc4IDIuOTM5IDMuMjY4IDIuOTM5IDMuMzAyIDAgLjAzNS0xLjMzMSAxLjUyMi0yLjk0IDMuMzAzQzEuMzE0IDE3LjExLjAxNyAxOC42ODMuMDM1IDE4LjgyMmMuMDg2LjQ2NyAxLjUwNCAxLjA1NSAyLjU0MSAxLjA1NSAxLjY3OC0uMDE4IDIuMDU4LS4zMTIgNS42MDMtNC4yMDIgMS43OC0xLjk1NCAzLjIzMy0zLjYxNCAzLjIzMy0zLjY2NiAwLS4wNjktMS40MzUtMS42OTQtMy4xOTktMy42My0yLjMtMi41MDgtMy40MjMtMy42MzItMy45Ni0zLjg3NC0uODEyLS4zOTgtMi4xMjYtLjQ2Ny0yLjk1Ni0uMTM4em0xOC40NjcuMTJjLS41MDIuMjYtMS43NjQgMS41MDUtMy45NDMgMy44OTEtMS43NjMgMS45MzctMy4xOTkgMy41NjItMy4xOTkgMy42MzEgMCAuMDcgMS40NTMgMS43MTIgMy4yMzQgMy42NjYgMy41NDQgMy44OSAzLjkyNSA0LjE4NCA1LjYwMiA0LjIwMiAxLjAzOCAwIDIuNDU1LS41ODggMi41NDItMS4wNTUuMDE3LS4xNTYtMS4yOC0xLjcxMi0yLjkwNS0zLjQ5My0xLjYwOC0xLjc4LTIuOTQtMy4yODUtMi45NC0zLjMyIDAtLjAzNCAxLjMzMi0xLjUzOSAyLjk0LTMuMzJDMjIuNzIgNi45MSAyNC4wMTcgNS4zNTIgMjQgNS4yMTRjLS4wODctLjQ1LTEuMzY2LS45NjgtMi40NzMtMS4wMzgtLjc5NS0uMDM0LTEuMjEuMDM1LTEuNzYzLjMxMnpNNy45NTQgMTYuOTczYy0yLjE0NCAyLjM2OS0zLjkwOCA0LjM3NC0zLjk0MyA0LjQ2LS4wMzQuMDcuMjA4LjMxMi41Mi41MzcuNDE0LjMxMS44NjQuNDMyIDEuNzExLjQ2NyAxLjU3NC4xMDMgMi4xNjEtLjI2IDQuMTUtMi41MDguODY0LS45NjggMS42MDgtMS43OCAxLjYyNS0xLjc4cy43NjEuODEyIDEuNjQzIDEuNzk4YzIuMDIzIDIuMjQ4IDIuNTU5IDIuNTc2IDQuMTMyIDIuNDkuODQ4LS4wMzUgMS4yOTctLjE1NiAxLjcxMi0uNDY3LjMxMS0uMjI1LjU1My0uNDY3LjUxOS0uNTM2LS4wODctLjI2LTcuOTItOC44MTktOC4wNTgtOC44MDEtLjA2OSAwLTEuODY3IDEuOTU0LTQuMDExIDQuMzR6Ii8+PC9zdmc+;aspect=fixed;" parent="1" vertex="1">
          <mxGeometry x="440" y="440" width="50" height="40" as="geometry" />
        </mxCell>
        <mxCell id="h34N8ByZbucSesH93EYC-16" style="shape=image;editableCssRules=.*;image=data:image/svg+xml,PHN2ZyB2aWV3Qm94PSIwIDAgMjQgMjQiIHhtbG5zPSJodHRwOi8vd3d3LnczLm9yZy8yMDAwL3N2ZyI+PHN0eWxlPip7ZmlsbDojRTk1NDIwfTwvc3R5bGU+PHBhdGggZD0iTTE3LjYxLjQ1NWEzLjQxIDMuNDEgMCAwIDAtMy40MSAzLjQxIDMuNDEgMy40MSAwIDAgMCAzLjQxIDMuNDEgMy40MSAzLjQxIDAgMCAwIDMuNDEtMy40MSAzLjQxIDMuNDEgMCAwIDAtMy40MS0zLjQxek0xMi45Mi44QzguOTIzLjc3NyA1LjEzNyAyLjk0MSAzLjE0OCA2LjQ1MWE0LjUgNC41IDAgMCAxIC4yNi0uMDA3IDQuOTIgNC45MiAwIDAgMSAyLjU4NS43MzdBOC4zMTYgOC4zMTYgMCAwIDEgMTIuNjg4IDMuNiA0Ljk0NCA0Ljk0NCAwIDAgMSAxMy43MjMuODM0IDExLjAwOCAxMS4wMDggMCAwIDAgMTIuOTIuOHptOS4yMjYgNC45OTRhNC45MTUgNC45MTUgMCAwIDEtMS45MTggMi4yNDYgOC4zNiA4LjM2IDAgMCAxLS4yNzMgOC4zMDMgNC44OSA0Ljg5IDAgMCAxIDEuNjMyIDIuNTQgMTEuMTU2IDExLjE1NiAwIDAgMCAuNTU5LTEzLjA4OXpNMy40MSA3LjkzMkEzLjQxIDMuNDEgMCAwIDAgMCAxMS4zNDJhMy40MSAzLjQxIDAgMCAwIDMuNDEgMy40MDkgMy40MSAzLjQxIDAgMCAwIDMuNDEtMy40MSAzLjQxIDMuNDEgMCAwIDAtMy40MS0zLjQxem0yLjAyNyA3Ljg2NmE0LjkwOCA0LjkwOCAwIDAgMS0yLjkxNS4zNTggMTEuMSAxMS4xIDAgMCAwIDcuOTkxIDYuNjk4IDExLjIzNCAxMS4yMzQgMCAwIDAgMi40MjIuMjQ5IDQuODc5IDQuODc5IDAgMCAxLS45OTktMi44NSA4LjQ4NCA4LjQ4NCAwIDAgMS0uODM2LS4xMzYgOC4zMDQgOC4zMDQgMCAwIDEtNS42NjMtNC4zMnptMTEuNDA1LjkyOGEzLjQxIDMuNDEgMCAwIDAtMy40MSAzLjQxIDMuNDEgMy40MSAwIDAgMCAzLjQxIDMuNDEgMy40MSAzLjQxIDAgMCAwIDMuNDEtMy40MSAzLjQxIDMuNDEgMCAwIDAtMy40MS0zLjQxeiIvPjwvc3ZnPg==;" parent="1" vertex="1">
          <mxGeometry x="640" y="440.00000000000006" width="40" height="40" as="geometry" />
        </mxCell>
        <mxCell id="h34N8ByZbucSesH93EYC-23" value="" style="rounded=1;whiteSpace=wrap;html=1;" parent="1" vertex="1">
          <mxGeometry x="640" y="670" width="180" height="240" as="geometry" />
        </mxCell>
        <mxCell id="h34N8ByZbucSesH93EYC-27" value="Tor Relay:&lt;div&gt;Guard or Middle Node&lt;/div&gt;&lt;div&gt;Port:443&lt;/div&gt;" style="text;html=1;align=left;verticalAlign=middle;resizable=0;points=[];autosize=1;strokeColor=none;fillColor=none;" parent="1" vertex="1">
          <mxGeometry x="695.73" y="706.8299999999999" width="140" height="60" as="geometry" />
        </mxCell>
        <mxCell id="h34N8ByZbucSesH93EYC-28" style="edgeStyle=orthogonalEdgeStyle;rounded=0;orthogonalLoop=1;jettySize=auto;html=1;exitX=0.5;exitY=1;exitDx=0;exitDy=0;" parent="1" source="h34N8ByZbucSesH93EYC-23" target="h34N8ByZbucSesH93EYC-23" edge="1">
          <mxGeometry relative="1" as="geometry" />
        </mxCell>
        <mxCell id="h34N8ByZbucSesH93EYC-29" style="shape=image;editableCssRules=.*;image=data:image/svg+xml,PHN2ZyB2aWV3Qm94PSIwIDAgMjQgMjQiIHhtbG5zPSJodHRwOi8vd3d3LnczLm9yZy8yMDAwL3N2ZyI+PHN0eWxlPip7ZmlsbDojN0Q0Njk4fTwvc3R5bGU+PHBhdGggZD0iTTExLjkxMjQgMTcuMTU4MXpNMTcuOTgxNyAxLjE0YTguNDE5IDguNDE5IDAgMDAtNC40Njk1IDMuMTE5NkEyMS40Mjc3IDIxLjQyNzcgMCAwMTE2LjUxMiAwYTEyLjQxODcgMTIuNDE4NyAwIDAwLTMuOTk5NiA0LjM1OTVsLjY0LTIuNTQ5N2ExNC42Mjg0IDE0LjYyODQgMCAwMC0xLjg5OTggNS4zNDk0bDEuMTE5OC40OGEzMy4xMjY0IDMzLjEyNjQgMCAwMTUuNjA5NC02LjQ5OTN6bS44MiAxMy4wNjg2Yy0uODItMS41MTk5LTIuOTE5Ny0zLjAwOTctNS4xMjk1LTQuMzg5Ni0uNTEtLjMtLjYxLTEuNDA5OC0uNTMtMS44ODk4bC0uNTA5OS0uMjRhNi4zNjkzIDYuMzY5MyAwIDAwLjE2IDIuMzg5OGMuMjQuNzUuOTk5OSAxLjU5OTggMS41MTk4IDIuNzk5N2ExOC4xNTggMTguMTU4IDAgMDEuNzIgMi45MTk3IDEzLjE2ODYgMTMuMTY4NiAwIDAxLS41NCA2LjExOTMgNC4yNTk1IDQuMjU5NSAwIDAxLTEuNDI5OCAxLjkxOThsLS4yNC4xNmM0LjE1OTUuMTMgOC44MjktNC42Mjk1IDUuOTc5My05Ljc4OXptLTUuMzk5NSA0Ljc4OTRhNi42MTkzIDYuNjE5MyAwIDAwLS40Mi0xLjk5OTcgMTIuNDA4NyAxMi40MDg3IDAgMDAtLjc0OTgtMS40Mzk5IDYuMjI5MyA2LjIyOTMgMCAwMS0uMTYtMi4wNjk4IDYuOTk5MiA2Ljk5OTIgMCAwMC4zMiAxLjkzOTggMTEuMDc4OCAxMS4wNzg4IDAgMDEuNjg5OSAxLjI5OTkgOC45OTkgOC45OTkgMCAwMS41ODk5IDIuMjY5NyAxMC40Mjg5IDEwLjQyODkgMCAwMS0uMzUgMi45OTk3IDUuMTA5NCA1LjEwOTQgMCAwMS0uNCAxIDQuODQ5NSA0Ljg0OTUgMCAwMC43LTEuNTIgMTIuNDE4NyAxMi40MTg3IDAgMDAuMzYtNC40Nzk0IDExLjYwODcgMTEuNjA4NyAwIDAwLS40Ni0xLjg4OThjLS40NC0xLjItMS4wNjk5LTIuMjI5OC0xLjE0OTktMi40Njk4YTE2LjIwODIgMTYuMjA4MiAwIDAxLS4zOS0zLjM1OTYgMTQuMzA4NCAxNC4zMDg0IDAgMDAuNDQgMy4xMTk3Yy4wOC4yNC44IDEuMzc5OCAxLjI5OTkgMi41Nzk3YTcuNDY5MiA3LjQ2OTIgMCAwMS40OCAxLjcyOTggMTAuNzE4OCAxMC43MTg4IDAgMDEtLjUzIDUuMTU5NCAzLjk5OTYgMy45OTk2IDAgMDEtLjM1LjgyIDMuNzE5NiAzLjcxOTYgMCAwMC44LTEuNDEgMTYuMTM4MiAxNi4xMzgyIDAgMDAwLTguMTA5Yy0uNDItMS4yNzk5LTEuNDA5OS0yLjM5OTgtMS42NDk5LTMuMTY5N2E3LjY3OTIgNy42NzkyIDAgMDEtLjA4LTIuMzg5N2wtMi4xNDk3LTFjLjU2IDEuNDQuNjU5OSAyLjU1OTguMDggMi45OTk4LTIuMjU5OCAxLjg2OTgtNS45OTk0IDMuOTk5NS01Ljk5OTQgNy4xMDkyIDAgMy4zMTk2IDEuOTk5OCA2LjkwOTIgNy4wNDkyIDcuMTc5MmExMi45OTg2IDEyLjk5ODYgMCAwMS0xLjY5OTgtLjU2IDMuNDQ5NiAzLjQ0OTYgMCAwMS0xLjMwOTgtLjg5OThsLS4xMy0uMTRBOS4zMzkgOS4zMzkgMCAwMTYuMjMzIDE4LjY1OGEyLjcwOTcgMi43MDk3IDAgMDEtLjA4LTEuNTE5OSA2LjY3OTMgNi42NzkzIDAgMDEzLjI3OTctMy45OTk1IDEwLjA5OSAxMC4wOTkgMCAwMC45OTk5LS42MWMuNDY5OS0uMjkuNzY5OS0xLjUyOTggMS4wNzk4LTIuNTI5Ny0uMTYuNzctLjM0IDIuMjU5OC0xLjA1OTkgMi44MTk3LS4yOS4yMi0uNjA5OS40My0uOTI5OS42NC0xLjI3OTguODc5OC0yLjUzOTcgMS42OTk4LTMuMTY5NiAzLjgwOTVhMi44MTk3IDIuODE5NyAwIDAwLjA4IDEuMzc5OSA5LjMxOSA5LjMxOSAwIDAwMS45NDk4IDMuNTA5NnMuMTMuMTMuMTMuMTZhMi45OTk3IDIuOTk5NyAwIDAwMS45Mzk3IDEuMTQ5OWMtLjI5LS4xNi0uNTI5OS0uMzUtLjczOTktLjQ4YTQuMzU5NSA0LjM1OTUgMCAwMS0xLjk5OTgtMy41OTk2IDMuNjk5NiAzLjY5OTYgMCAwMTIuMTc5OC0zLjM4OTYgMy41Nzk2IDMuNTc5NiAwIDAwMS42Nzk4LTIuMzc5OCAzLjExOTcgMy4xMTk3IDAgMDEtMS41ODk4IDIuNDk5OCAzLjk5OTYgMy45OTk2IDAgMDAtMi4wOTk4IDMuMTY5NiA1LjY1OTQgNS42NTk0IDAgMDAxLjg4OTggMy4zOTk2IDQuMDc5NiA0LjA3OTYgMCAwMDEuNTg5OC43MiAyLjg4OTcgMi44ODk3IDAgMDEtLjQ3OTktLjUgNC45OTk1IDQuOTk5NSAwIDAxLS40NS0uOTk5OSAyLjk5OTcgMi45OTk3IDAgMDEtLjI3LS45OTk5IDMuNTk5NiAzLjU5OTYgMCAwMS42NC0yLjM2OTcgMi44Mzk3IDIuODM5NyAwIDAwLjktMS4zNDk5IDIuODY5NyAyLjg2OTcgMCAwMS0uNzIgMS41MDk5IDIuOTk5NyAyLjk5OTcgMCAwMC0uNTYgMi4yMzk3IDQuMDU5NiA0LjA1OTYgMCAwMC4yOS45MyAzLjk5OTYgMy45OTk2IDAgMDAuNTEuOTk5OGMuMTguMjEuMjYuMzcuNTQ5OS40OGE2LjQ3OTMgNi40NzkzIDAgMDAuNDktMi4zNDk4IDkuNTE5IDkuNTE5IDAgMDAwLTEuNzU5OGMtLjEzLS43OTk5LS40LTEuNTk5OC0uNC0yLjIzOTcuMTIuNTg5OS40MyAxLjM3OTguNjEgMi4yMDk3YTUuNjI5NCA1LjYyOTQgMCAwMS4xMSAxLjcyOThjMCAuNTYtLjA4IDEtLjE2IDEuNDg5OWExLjk5OTggMS45OTk4IDAgMDEtLjQ1LjkyOTkgMy4yMDk3IDMuMjA5NyAwIDAwMS4xMDk5LTEuOTk5OCA3Ljg5OTEgNy44OTkxIDAgMDAuMzItMi4zNTk4eiIvPjwvc3ZnPg==;" parent="1" vertex="1">
          <mxGeometry x="655.73" y="716.8199999999999" width="40" height="40" as="geometry" />
        </mxCell>
        <mxCell id="h34N8ByZbucSesH93EYC-30" style="shape=image;editableCssRules=.*;image=data:image/svg+xml,PHN2ZyB2aWV3Qm94PSIwIDAgMjQgMjQiIHhtbG5zPSJodHRwOi8vd3d3LnczLm9yZy8yMDAwL3N2ZyI+PHN0eWxlPip7ZmlsbDojQTgxRDMzfTwvc3R5bGU+PHBhdGggZD0iTTEzLjg4IDEyLjY4NWMtLjQgMCAuMDguMi42MDEuMjguMTQtLjEuMjctLjIyLjM5LS4zM2EzLjAwMSAzLjAwMSAwIDAxLS45OS4wNW0yLjE0LS41M2MuMjMtLjMzLjQtLjY5LjQ3LTEuMDYtLjA2LjI3LS4yLjUtLjMzLjczLS43NS40Ny0uMDctLjI3IDAtLjU2LS44IDEuMDEtLjExLjYtLjE0Ljg5bS43ODEtMi4wNWMuMDUtLjcyMS0uMTQtLjUwMS0uMi0uMjIxLjA3LjA0LjEzLjUuMi4yMk0xMi4zOC4zMWMuMi4wNC40NS4wNy40Mi4xMi4yMy0uMDUuMjgtLjEtLjQzLS4xMm0uNDMuMTJsLS4xNS4wMy4xNC0uMDFWLjQzbTYuNjMzIDkuOTQ0Yy4wMi42NC0uMi45NS0uMzggMS41bC0uMzUuMTgxYy0uMjguNTQuMDMuMzUtLjE3Ljc4LS40NC4zOS0xLjM0IDEuMjItMS42MiAxLjMwMS0uMjAxIDAgLjE0LS4yNS4xOS0uMzQtLjU5MS40LS40ODEuNi0xLjM3MS44NWwtLjAzLS4wNmMtMi4yMjEgMS4wNC01LjMwMy0xLjAyLTUuMjUzLTMuODQyLS4wMy4xNy0uMDcuMTMtLjEyLjJhMy41NTEgMy41NTIgMCAwMTIuMDAxLTMuNTAxIDMuMzYxIDMuMzYyIDAgMDEzLjczMi40OCAzLjM0MSAzLjM0MiAwIDAwLTIuNzIxLTEuM2MtMS4xOC4wMS0yLjI4MS43Ni0yLjY1MSAxLjU3LS42LjM4LS42NyAxLjQ3LS45MyAxLjY2MS0uMzYxIDIuNjAxLjY2IDMuNzIyIDIuMzggNS4wNDIuMjcuMTkuMDguMjEuMTIuMzVhNC43MDIgNC43MDIgMCAwMS0xLjUzLTEuMTZjLjIzLjMzLjQ3LjY2LjguOTEtLjU1LS4xOC0xLjI3LTEuMy0xLjQ4LTEuMzUuOTMgMS42NiAzLjc4IDIuOTIxIDUuMjYxIDIuM2E2LjIwMyA2LjIwMyAwIDAxLTIuMzMtLjI4Yy0uMzMtLjE2LS43Ny0uNTEtLjctLjU3YTUuODAyIDUuODAzIDAgMDA1LjkwMi0uODRjLjQ0LS4zNS45My0uOTQgMS4wNy0uOTUtLjIuMzIuMDQuMTYtLjEyLjQ0LjQ0LS43Mi0uMi0uMy40Ni0xLjI0bC4yNC4zM2MtLjA5LS42Ljc0LTEuMzIxLjY2LTIuMjYyLjE5LS4zLjIuMyAwIC45Ny4yOS0uNzQuMDgtLjg1LjE1LTEuNDYuMDguMi4xOC40Mi4yMy42My0uMTgtLjcuMi0xLjIuMjgtMS42LS4wOS0uMDUtLjI4LjMtLjMyLS41MyAwLS4zNy4xLS4yLjE0LS4yOC0uMDgtLjA1LS4yNi0uMzItLjM4LS44NjEuMDgtLjEzLjIyLjMzLjM0LjM0LS4wOC0uNDItLjItLjc1LS4yLTEuMDgtLjM0LS42OC0uMTIuMS0uNC0uMy0uMzQtMS4wOTEuMy0uMjUuMzQtLjc0LjU0Ljc3Ljg0IDEuOTYuOTgxIDIuNDYtLjEtLjYtLjI4LTEuMi0uNDktMS43Ni4xNi4wNy0uMjYtMS4yNDEuMjEtLjM3QTcuODIzIDcuODI0IDAgMDAxNy43MDIgMS42Yy4xOC4xNy40Mi4zOS4zMy40Mi0uNzUtLjQ1LS42Mi0uNDgtLjczLS42Ny0uNjEtLjI1LS42NS4wMi0xLjA2IDBDMTUuMDgyLjczIDE0Ljg2Mi44IDEzLjguNGwuMDUuMjNjLS43Ny0uMjUtLjkuMS0xLjczIDAtLjA1LS4wNC4yNy0uMTQuNTMtLjE4LS43NDEuMS0uNzAxLS4xNC0xLjQzMS4wMy4xNy0uMTMuMzYtLjIxLjU1LS4zMi0uNi4wNC0xLjQ0LjM1LTEuMTguMDdDOS42LjY4IDcuODQ3IDEuMyA2Ljg2NyAyLjIyTDYuODM4IDJjLS40NS41NC0xLjk2IDEuNjExLTIuMDggMi4zMTFsLS4xMzEuMDNjLS4yMy40LS4zOC44NS0uNTcgMS4yNjEtLjMuNTItLjQ1LjItLjQuMjgtLjYgMS4yMi0uOSAyLjI1MS0xLjE2IDMuMTAyLjE4LjI3IDAgMS42NS4wNyAyLjc2LS4zIDUuNDYzIDMuODQgMTAuNzc2IDguMzYzIDEyLjAwNi42Ny4yMyAxLjY1LjIzIDIuNDkuMjUtLjk5LS4yOC0xLjEyLS4xNS0yLjA4LS40OS0uNy0uMzItLjg1LS43LTEuMzQtMS4xM2wuMi4zNWMtLjk3MS0uMzQtLjU3LS40Mi0xLjM2MS0uNjdsLjIxLS4yN2MtLjMxLS4wMy0uODMtLjUzLS45Ny0uODFsLS4zNC4wMWMtLjQxLS41MDEtLjYzLS44NzEtLjYxLTEuMTYxbC0uMTExLjJjLS4xMy0uMjEtMS41Mi0xLjkwMS0uOC0xLjUxMS0uMTMtLjEyLS4zMS0uMi0uNS0uNTVsLjE0LS4xN2MtLjM1LS40NC0uNjQtMS4wMi0uNjItMS4yLjIuMjQuMzIuMy40NS4zMy0uODgtMi4xNzItLjkzLS4xMi0xLjYwMS0yLjIwMmwuMTUtLjAyYy0uMS0uMTYtLjE4LS4zNC0uMjYtLjUxbC4wNi0uNmMtLjYzLS43NC0uMTgtMy4xMDItLjA5LTQuNDAyLjA3LS41NC41My0xLjEuODgtMS45ODFsLS4yMS0uMDRjLjQtLjcxIDIuMzQxLTIuODcyIDMuMjQxLTIuNzYxLjQzLS41NS0uMDkgMC0uMTgtLjE0Ljk2LS45OTEgMS4yNi0uNyAxLjkwMS0uODguNy0uNDAxLS42LjE2LS4yNy0uMTUxIDEuMi0uMy44NS0uNyAyLjQyMS0uODUuMTYuMS0uMzkuMTQtLjUyLjI2IDEtLjQ5IDMuMTUxLS4zNyA0LjU2Mi4yNyAxLjYzLjc3IDMuNDYxIDMuMDExIDMuNTMxIDUuMTMybC4wOC4wMmMtLjA0Ljg1LjEzIDEuODIxLS4xNyAyLjcxMWwuMi0uNDJNOS41NCAxMy4yMzZsLS4wNS4yOGMuMjYuMzUuNDcuNzMuOCAxLjAxLS4yNC0uNDctLjQyLS42Ni0uNzUtMS4zbS42Mi0uMDJjLS4xNC0uMTUtLjIyLS4zNC0uMzEtLjUyLjA4LjMyLjI2LjYuNDMuODhsLS4xMi0uMzZtMTAuOTQ1LTIuMzgybC0uMDcuMTVjLS4xLjc2LS4zNCAxLjUxMS0uNjkgMi4yMTIuNC0uNzMuNjUtMS41NDEuNzUtMi4zNjJNMTIuNDUuMTJjLjI3LS4xLjY2LS4wNS45NS0uMTItLjM3LjAzLS43NC4wNS0xLjEuMWwuMTUuMDJNMy4wMDYgNS4xNDJjLjA3LjU3LS40My44LjExLjQyLjMtLjY2LS4xMS0uMTgtLjEtLjQybS0uNjQgMi42NjFjLjEyLS4zOS4xNS0uNjIuMi0uODQtLjM1LjQ0LS4xNy41My0uMi44MyIvPjwvc3ZnPg==;" parent="1" vertex="1">
          <mxGeometry x="373.58000000000004" y="676.8199999999999" width="30" height="30" as="geometry" />
        </mxCell>
        <mxCell id="h34N8ByZbucSesH93EYC-31" value="&lt;div&gt;Vlan100&lt;/div&gt;VM1 Debain:" style="text;strokeColor=none;align=center;fillColor=none;html=1;verticalAlign=middle;whiteSpace=wrap;rounded=0;" parent="1" vertex="1">
          <mxGeometry x="278.64" y="685.23" width="91.36" height="13.18" as="geometry" />
        </mxCell>
        <mxCell id="h34N8ByZbucSesH93EYC-33" value="" style="rounded=1;whiteSpace=wrap;html=1;" parent="1" vertex="1">
          <mxGeometry x="260" y="850" width="140" height="100" as="geometry" />
        </mxCell>
        <mxCell id="h34N8ByZbucSesH93EYC-34" value="Packages:" style="text;strokeColor=none;align=center;fillColor=none;html=1;verticalAlign=middle;whiteSpace=wrap;rounded=0;" parent="1" vertex="1">
          <mxGeometry x="300" y="860" width="60" height="30" as="geometry" />
        </mxCell>
        <mxCell id="h34N8ByZbucSesH93EYC-36" value="&lt;li&gt;fail2ban&lt;/li&gt;&lt;li&gt;ufw&lt;/li&gt;&lt;li&gt;clamav suite&lt;/li&gt;" style="text;html=1;align=left;verticalAlign=middle;resizable=0;points=[];autosize=1;strokeColor=none;fillColor=none;" parent="1" vertex="1">
          <mxGeometry x="270.00000000000006" y="880" width="110" height="60" as="geometry" />
        </mxCell>
        <mxCell id="h34N8ByZbucSesH93EYC-39" style="edgeStyle=orthogonalEdgeStyle;rounded=0;orthogonalLoop=1;jettySize=auto;html=1;exitX=0.5;exitY=1;exitDx=0;exitDy=0;" parent="1" edge="1">
          <mxGeometry relative="1" as="geometry">
            <mxPoint x="730" y="1008.77" as="sourcePoint" />
            <mxPoint x="730" y="1008.77" as="targetPoint" />
          </mxGeometry>
        </mxCell>
        <mxCell id="h34N8ByZbucSesH93EYC-40" value="" style="rounded=1;whiteSpace=wrap;html=1;" parent="1" vertex="1">
          <mxGeometry x="660" y="780" width="140" height="110" as="geometry" />
        </mxCell>
        <mxCell id="h34N8ByZbucSesH93EYC-41" value="Packages:" style="text;strokeColor=none;align=center;fillColor=none;html=1;verticalAlign=middle;whiteSpace=wrap;rounded=0;" parent="1" vertex="1">
          <mxGeometry x="700" y="790" width="60" height="30" as="geometry" />
        </mxCell>
        <mxCell id="h34N8ByZbucSesH93EYC-42" value="&lt;li&gt;Nyx&lt;/li&gt;&lt;li&gt;fail2ban&lt;/li&gt;&lt;li&gt;ufw&lt;/li&gt;&lt;li&gt;clamav suite&lt;/li&gt;" style="text;html=1;align=left;verticalAlign=middle;resizable=0;points=[];autosize=1;strokeColor=none;fillColor=none;" parent="1" vertex="1">
          <mxGeometry x="675" y="810" width="110" height="70" as="geometry" />
        </mxCell>
        <mxCell id="h34N8ByZbucSesH93EYC-43" value="" style="rounded=1;whiteSpace=wrap;html=1;" parent="1" vertex="1">
          <mxGeometry x="240" y="990" width="180" height="148.26" as="geometry" />
        </mxCell>
        <mxCell id="h34N8ByZbucSesH93EYC-44" value="&lt;div&gt;Vlan300&lt;/div&gt;CyberLab:" style="text;strokeColor=none;align=center;fillColor=none;html=1;verticalAlign=middle;whiteSpace=wrap;rounded=0;" parent="1" vertex="1">
          <mxGeometry x="286.24" y="996.82" width="91.36" height="25.18" as="geometry" />
        </mxCell>
        <mxCell id="h34N8ByZbucSesH93EYC-45" style="shape=image;editableCssRules=.*;image=data:image/svg+xml,PHN2ZyB2aWV3Qm94PSIwIDAgMjQgMjQiIHhtbG5zPSJodHRwOi8vd3d3LnczLm9yZy8yMDAwL3N2ZyI+PHN0eWxlPip7ZmlsbDojRTk1NDIwfTwvc3R5bGU+PHBhdGggZD0iTTE3LjYxLjQ1NWEzLjQxIDMuNDEgMCAwIDAtMy40MSAzLjQxIDMuNDEgMy40MSAwIDAgMCAzLjQxIDMuNDEgMy40MSAzLjQxIDAgMCAwIDMuNDEtMy40MSAzLjQxIDMuNDEgMCAwIDAtMy40MS0zLjQxek0xMi45Mi44QzguOTIzLjc3NyA1LjEzNyAyLjk0MSAzLjE0OCA2LjQ1MWE0LjUgNC41IDAgMCAxIC4yNi0uMDA3IDQuOTIgNC45MiAwIDAgMSAyLjU4NS43MzdBOC4zMTYgOC4zMTYgMCAwIDEgMTIuNjg4IDMuNiA0Ljk0NCA0Ljk0NCAwIDAgMSAxMy43MjMuODM0IDExLjAwOCAxMS4wMDggMCAwIDAgMTIuOTIuOHptOS4yMjYgNC45OTRhNC45MTUgNC45MTUgMCAwIDEtMS45MTggMi4yNDYgOC4zNiA4LjM2IDAgMCAxLS4yNzMgOC4zMDMgNC44OSA0Ljg5IDAgMCAxIDEuNjMyIDIuNTQgMTEuMTU2IDExLjE1NiAwIDAgMCAuNTU5LTEzLjA4OXpNMy40MSA3LjkzMkEzLjQxIDMuNDEgMCAwIDAgMCAxMS4zNDJhMy40MSAzLjQxIDAgMCAwIDMuNDEgMy40MDkgMy40MSAzLjQxIDAgMCAwIDMuNDEtMy40MSAzLjQxIDMuNDEgMCAwIDAtMy40MS0zLjQxem0yLjAyNyA3Ljg2NmE0LjkwOCA0LjkwOCAwIDAgMS0yLjkxNS4zNTggMTEuMSAxMS4xIDAgMCAwIDcuOTkxIDYuNjk4IDExLjIzNCAxMS4yMzQgMCAwIDAgMi40MjIuMjQ5IDQuODc5IDQuODc5IDAgMCAxLS45OTktMi44NSA4LjQ4NCA4LjQ4NCAwIDAgMS0uODM2LS4xMzYgOC4zMDQgOC4zMDQgMCAwIDEtNS42NjMtNC4zMnptMTEuNDA1LjkyOGEzLjQxIDMuNDEgMCAwIDAtMy40MSAzLjQxIDMuNDEgMy40MSAwIDAgMCAzLjQxIDMuNDEgMy40MSAzLjQxIDAgMCAwIDMuNDEtMy40MSAzLjQxIDMuNDEgMCAwIDAtMy40MS0zLjQxeiIvPjwvc3ZnPg==;" parent="1" vertex="1">
          <mxGeometry x="252.11" y="1022" width="40" height="40" as="geometry" />
        </mxCell>
        <mxCell id="h34N8ByZbucSesH93EYC-46" style="shape=image;editableCssRules=.*;image=data:image/svg+xml,PHN2ZyB2aWV3Qm94PSIwIDAgMjQgMjQiIHhtbG5zPSJodHRwOi8vd3d3LnczLm9yZy8yMDAwL3N2ZyI+PHN0eWxlPip7ZmlsbDojNTU3Qzk0fTwvc3R5bGU+PHBhdGggZD0iTTEyLjc3OCA1Ljk0M3MtMS45Ny0uMTMtNS4zMjcuOTJjLTMuNDIgMS4wNy01LjM2IDIuNTg3LTUuMzYgMi41ODdzNS4wOTgtMi44NDcgMTAuODUyLTMuMDA4em03LjM1MSAzLjA5NWwuMjU3LS4wMTdzLTEuNDY4LTEuNzgtNC4yNzgtMi42NDhjMS41OC42NDIgMi45NTQgMS40OTMgNC4wMjEgMi42NjV6bS40Mi43NGMuMDM5LS4wNjguMTY2LjIxNy4yNjMuMzM3LjAwNC4wMjQuMDEuMDM5LS4wNDUuMDI3LS4wMDUtLjAyNS0uMDEzLS4wMzItLjAxMy0uMDMycy0uMTM1LS4wOC0uMTc3LS4xMzdjLS4wNDEtLjA1Ny0uMDQ5LS4xNTctLjAyOC0uMTk1em0zLjQ0OCA4LjQ3OXMuMzEyLTMuNTc4LTUuMzEtNC40MDNhMTguMjc3IDE4LjI3NyAwIDAgMC0yLjUyNC0uMTg3Yy00LjUwNi4wNi00LjY3LTUuMTk3LTEuMjc1LTUuNDYyIDEuNDA3LS4xMTYgMy4wODcuNjQzIDQuNzMgMS40MDgtLjAwNy4yMDQuMDAyLjM4NS4xMzYuNTUyLjEzNC4xNjguNjQ4LjM1LjgxMy40NDUuMTY0LjA5NC42OTEuNDMgMS4wMTQuODUuMDctLjEzMS42NTQtLjUxMi42NTQtLjUxMnMtLjE0LjAwMy0uNDY1LS4xMTljLS4zMjYtLjEyMi0uNzEzLS40OS0uNzIyLS41MTEtLjAxLS4wMjItLjAxNS0uMDU1LjA2LS4wNy4wNTktLjA0OS0uMDcyLS4yMDctLjEzLS4yNjUtLjA1OC0uMDU4LS40NDUtLjcxNi0uNDU0LS43My0uMDA5LS4wMTYtLjAxMi0uMDMxLS4wNC0uMDUtLjA4NS0uMDI3LS40Ni4wNC0uNDYuMDRzLS41NzUtLjI4My0uNzc0LS44OTNjLjAwMy4xMDctLjA5OS4yMjQgMCAuNDY5LS4zLS4xMjctLjU1OC0uMzQ0LS43NjItLjg4LS4xMi4zMDUgMCAuNDk5IDAgLjQ5OXMtLjcwNy0uMTk4LS44Mi0uODVjLS4xMjQuMjkzIDAgLjQ2OSAwIC40NjlzLTEuMTUzLS42MDItMy4wNjktLjYxYy0xLjI4My0uMTE4LTEuNTUtMi4zNzQtMS40My0yLjc1NCAwIDAtMS44NS0uOTc1LTUuNDkzLTEuNDA2LTMuNjQyLS40My02LjYyOC0uMDY1LTYuNjI4LS4wNjVzNi40NS0uMzEgMTEuNjE3IDEuNzgzYy4xNzYuNzg1LjcwNCAyLjA5NC45ODkgMi43MjMtLjgxNS41NjMtMS43MzMgMS4wOTItMS44NzYgMi45Ny0uMTQzIDEuODc4IDEuNDcyIDMuNTMgMy40NzQgMy41OCAxLjkuMTAyIDMuMjE0LjExNiA0LjgwNi45NDIgMS41Mi44NCAyLjc2NiAzLjQgMi44OSA1LjcwMy4xMzItMS43MDktLjUwOS01LjM4My0zLjUtNi40OTggNC4xODEuNzMyIDQuNTQ5IDMuODMyIDQuNTQ5IDMuODMyek0xMi42OCA1LjY2M2wtLjE1LS40ODVzLTIuNDg0LS40NDEtNS44MjItLjIwNEMzLjM3IDUuMjExIDAgNi4zOCAwIDYuMzhzNi44OTYtMS43MzUgMTIuNjgtLjcxN1oiLz48L3N2Zz4=;" parent="1" vertex="1">
          <mxGeometry x="302.57" y="1022" width="40" height="40" as="geometry" />
        </mxCell>
        <mxCell id="h34N8ByZbucSesH93EYC-47" style="shape=image;editableCssRules=.*;image=data:image/svg+xml,PHN2ZyB2aWV3Qm94PSIwIDAgMjQgMjQiIHhtbG5zPSJodHRwOi8vd3d3LnczLm9yZy8yMDAwL3N2ZyI+PHN0eWxlPip7ZmlsbDojQUIyQjI4fTwvc3R5bGU+PHBhdGggZD0iTTIzLjY4MiAyLjQwNmMtLjAwMS0uMTQ5LS4wOTctLjE4Ny0uMjQtLjE4OWgtLjI1di42NTloLjEwOHYtLjI4MmguMTAybC4xNy4yODJoLjEyMmwtLjE4NC0uMjljLjEwMi0uMDEyLjE3NS0uMDY1LjE3Mi0uMTh6bS0uMzgyLjA5NnYtLjE5M2guMTNjLjA2LS4wMDIuMTQ1LjAxMS4xNDMuMDg5LjAwNS4wOS0uMDguMTA3LS4xNTMuMTAzaC0uMTJ6TTIxLjg1MSAxLjQ5YzEuMTcyIDEuMTcxLTIuMDc3IDYuMzE5LTIuNjI2IDYuODY5LS41NDkuNTQ4LTEuOTQ0LjA0NC0zLjExNS0xLjEyOC0xLjE3Mi0xLjE3MS0xLjY3Ni0yLjU2Ni0xLjEyNy0zLjExNS41NDktLjU1IDUuNjk3LTMuNzk4IDYuODY4LTIuNjI2ek0xLjY1MiA2LjYxQy42MjYgNC44MTgtLjU0NCAyLjIxNS4yNzYgMS4zOTVjLjgxLS44MSAzLjM1NS4zMTkgNS4xNDQgMS4zMzRBMTEuMDAzIDExLjAwMyAwIDAgMCAxLjY1MiA2LjYxem0xOC45NS40MThhMTAuNTg0IDEwLjU4NCAwIDAgMSAxLjM2OCA1LjIxOGMwIDUuODc0LTQuNzYyIDEwLjYzNi0xMC42MzcgMTAuNjM2QzUuNDU5IDIyLjg4Mi42OTcgMTguMTIuNjk3IDEyLjI0Ni42OTcgNi4zNzEgNS40NTkgMS42MSAxMS4zMzMgMS42MWMxLjc3MSAwIDMuNDQxLjQzMyA0LjkwOSAxLjE5OS0uMzYxLjIwMS0uNjkuMzk4LS45NjkuNTc0LS40MjgtLjA3Ny0uNzc4LS4wMTctLjk5OC4yMDItLjQwMi40MDItLjI2OSAxLjI0NS4yNjMgMi4yLjI3My41MzkuNzAxIDEuMTI0IDEuMjUgMS42NzQuMTAzLjEwNC4yMDguMjAyLjMxNS4yOTcgMS41MTkgMS40NDYgMy4yMDUgMi4xMTEgMy44MjkgMS40ODYuMjY3LS4yNjcuMjk3LS43MjguMTMyLTEuMjg3LjE2Ny0uMjcuMzUtLjU4NC41MzgtLjkyN3ptMi44MTQtNS4wODhjLS4zMjIgMC0uNTg0LjI2Ni0uNTg0LjU5NXMuMjYxLjU5NS41ODQuNTk1Yy4zMjMgMCAuNTg0LS4yNjYuNTg0LS41OTVzLS4yNjEtLjU5NS0uNTg0LS41OTV6bTAgMS4wODdjLS4yNTIgMC0uNDU3LS4yMi0uNDU3LS40OTJzLjIwNC0uNDkyLjQ1Ny0uNDkyYy4yNTIgMCAuNDU3LjIyLjQ1Ny40OTJzLS4yMDQuNDkyLS40NTcuNDkyeiIvPjwvc3ZnPg==;" parent="1" vertex="1">
          <mxGeometry x="363.5799999999999" y="1022" width="40" height="40" as="geometry" />
        </mxCell>
        <mxCell id="h34N8ByZbucSesH93EYC-49" value="Tor Relay Ubuntu:" style="text;strokeColor=none;align=center;fillColor=none;html=1;verticalAlign=middle;whiteSpace=wrap;rounded=0;" parent="1" vertex="1">
          <mxGeometry x="679.46" y="683.6500000000001" width="80" height="13.18" as="geometry" />
        </mxCell>
        <mxCell id="h34N8ByZbucSesH93EYC-50" style="shape=image;editableCssRules=.*;image=data:image/svg+xml,PHN2ZyB2aWV3Qm94PSIwIDAgMjQgMjQiIHhtbG5zPSJodHRwOi8vd3d3LnczLm9yZy8yMDAwL3N2ZyI+PHN0eWxlPip7ZmlsbDojRTk1NDIwfTwvc3R5bGU+PHBhdGggZD0iTTE3LjYxLjQ1NWEzLjQxIDMuNDEgMCAwIDAtMy40MSAzLjQxIDMuNDEgMy40MSAwIDAgMCAzLjQxIDMuNDEgMy40MSAzLjQxIDAgMCAwIDMuNDEtMy40MSAzLjQxIDMuNDEgMCAwIDAtMy40MS0zLjQxek0xMi45Mi44QzguOTIzLjc3NyA1LjEzNyAyLjk0MSAzLjE0OCA2LjQ1MWE0LjUgNC41IDAgMCAxIC4yNi0uMDA3IDQuOTIgNC45MiAwIDAgMSAyLjU4NS43MzdBOC4zMTYgOC4zMTYgMCAwIDEgMTIuNjg4IDMuNiA0Ljk0NCA0Ljk0NCAwIDAgMSAxMy43MjMuODM0IDExLjAwOCAxMS4wMDggMCAwIDAgMTIuOTIuOHptOS4yMjYgNC45OTRhNC45MTUgNC45MTUgMCAwIDEtMS45MTggMi4yNDYgOC4zNiA4LjM2IDAgMCAxLS4yNzMgOC4zMDMgNC44OSA0Ljg5IDAgMCAxIDEuNjMyIDIuNTQgMTEuMTU2IDExLjE1NiAwIDAgMCAuNTU5LTEzLjA4OXpNMy40MSA3LjkzMkEzLjQxIDMuNDEgMCAwIDAgMCAxMS4zNDJhMy40MSAzLjQxIDAgMCAwIDMuNDEgMy40MDkgMy40MSAzLjQxIDAgMCAwIDMuNDEtMy40MSAzLjQxIDMuNDEgMCAwIDAtMy40MS0zLjQxem0yLjAyNyA3Ljg2NmE0LjkwOCA0LjkwOCAwIDAgMS0yLjkxNS4zNTggMTEuMSAxMS4xIDAgMCAwIDcuOTkxIDYuNjk4IDExLjIzNCAxMS4yMzQgMCAwIDAgMi40MjIuMjQ5IDQuODc5IDQuODc5IDAgMCAxLS45OTktMi44NSA4LjQ4NCA4LjQ4NCAwIDAgMS0uODM2LS4xMzYgOC4zMDQgOC4zMDQgMCAwIDEtNS42NjMtNC4zMnptMTEuNDA1LjkyOGEzLjQxIDMuNDEgMCAwIDAtMy40MSAzLjQxIDMuNDEgMy40MSAwIDAgMCAzLjQxIDMuNDEgMy40MSAzLjQxIDAgMCAwIDMuNDEtMy40MSAzLjQxIDMuNDEgMCAwIDAtMy40MS0zLjQxeiIvPjwvc3ZnPg==;" parent="1" vertex="1">
          <mxGeometry x="770" y="676.83" width="30" height="30" as="geometry" />
        </mxCell>
        <mxCell id="h34N8ByZbucSesH93EYC-52" value="" style="rounded=1;whiteSpace=wrap;html=1;" parent="1" vertex="1">
          <mxGeometry x="300" y="1062" width="100" height="58" as="geometry" />
        </mxCell>
        <mxCell id="h34N8ByZbucSesH93EYC-53" value="&lt;br&gt;&lt;span style=&quot;background-color: transparent; color: light-dark(rgb(0, 0, 0), rgb(255, 255, 255));&quot;&gt;VM3: Ubuntu&lt;/span&gt;&lt;br&gt;&lt;span style=&quot;background-color: transparent; color: light-dark(rgb(0, 0, 0), rgb(255, 255, 255));&quot;&gt;VM4: Kali&lt;/span&gt;&lt;br&gt;&lt;span style=&quot;background-color: transparent; color: light-dark(rgb(0, 0, 0), rgb(255, 255, 255));&quot;&gt;VM5: FreeBSD&lt;/span&gt;&lt;br&gt;VM6: Fedora" style="text;strokeColor=none;align=left;fillColor=none;html=1;verticalAlign=middle;whiteSpace=wrap;rounded=0;" parent="1" vertex="1">
          <mxGeometry x="303.58" y="1072" width="91.36" height="25.18" as="geometry" />
        </mxCell>
        <mxCell id="h34N8ByZbucSesH93EYC-54" value="" style="rounded=1;whiteSpace=wrap;html=1;" parent="1" vertex="1">
          <mxGeometry x="440" y="670" width="180" height="300" as="geometry" />
        </mxCell>
        <mxCell id="h34N8ByZbucSesH93EYC-55" value="&lt;div&gt;Vlan200&lt;/div&gt;VM2 Debain:" style="text;strokeColor=none;align=center;fillColor=none;html=1;verticalAlign=middle;whiteSpace=wrap;rounded=0;" parent="1" vertex="1">
          <mxGeometry x="484.32" y="683.65" width="91.36" height="13.18" as="geometry" />
        </mxCell>
        <mxCell id="h34N8ByZbucSesH93EYC-56" style="shape=image;editableCssRules=.*;image=data:image/svg+xml,PHN2ZyB2aWV3Qm94PSIwIDAgMjQgMjQiIHhtbG5zPSJodHRwOi8vd3d3LnczLm9yZy8yMDAwL3N2ZyI+PHN0eWxlPip7ZmlsbDojQTgxRDMzfTwvc3R5bGU+PHBhdGggZD0iTTEzLjg4IDEyLjY4NWMtLjQgMCAuMDguMi42MDEuMjguMTQtLjEuMjctLjIyLjM5LS4zM2EzLjAwMSAzLjAwMSAwIDAxLS45OS4wNW0yLjE0LS41M2MuMjMtLjMzLjQtLjY5LjQ3LTEuMDYtLjA2LjI3LS4yLjUtLjMzLjczLS43NS40Ny0uMDctLjI3IDAtLjU2LS44IDEuMDEtLjExLjYtLjE0Ljg5bS43ODEtMi4wNWMuMDUtLjcyMS0uMTQtLjUwMS0uMi0uMjIxLjA3LjA0LjEzLjUuMi4yMk0xMi4zOC4zMWMuMi4wNC40NS4wNy40Mi4xMi4yMy0uMDUuMjgtLjEtLjQzLS4xMm0uNDMuMTJsLS4xNS4wMy4xNC0uMDFWLjQzbTYuNjMzIDkuOTQ0Yy4wMi42NC0uMi45NS0uMzggMS41bC0uMzUuMTgxYy0uMjguNTQuMDMuMzUtLjE3Ljc4LS40NC4zOS0xLjM0IDEuMjItMS42MiAxLjMwMS0uMjAxIDAgLjE0LS4yNS4xOS0uMzQtLjU5MS40LS40ODEuNi0xLjM3MS44NWwtLjAzLS4wNmMtMi4yMjEgMS4wNC01LjMwMy0xLjAyLTUuMjUzLTMuODQyLS4wMy4xNy0uMDcuMTMtLjEyLjJhMy41NTEgMy41NTIgMCAwMTIuMDAxLTMuNTAxIDMuMzYxIDMuMzYyIDAgMDEzLjczMi40OCAzLjM0MSAzLjM0MiAwIDAwLTIuNzIxLTEuM2MtMS4xOC4wMS0yLjI4MS43Ni0yLjY1MSAxLjU3LS42LjM4LS42NyAxLjQ3LS45MyAxLjY2MS0uMzYxIDIuNjAxLjY2IDMuNzIyIDIuMzggNS4wNDIuMjcuMTkuMDguMjEuMTIuMzVhNC43MDIgNC43MDIgMCAwMS0xLjUzLTEuMTZjLjIzLjMzLjQ3LjY2LjguOTEtLjU1LS4xOC0xLjI3LTEuMy0xLjQ4LTEuMzUuOTMgMS42NiAzLjc4IDIuOTIxIDUuMjYxIDIuM2E2LjIwMyA2LjIwMyAwIDAxLTIuMzMtLjI4Yy0uMzMtLjE2LS43Ny0uNTEtLjctLjU3YTUuODAyIDUuODAzIDAgMDA1LjkwMi0uODRjLjQ0LS4zNS45My0uOTQgMS4wNy0uOTUtLjIuMzIuMDQuMTYtLjEyLjQ0LjQ0LS43Mi0uMi0uMy40Ni0xLjI0bC4yNC4zM2MtLjA5LS42Ljc0LTEuMzIxLjY2LTIuMjYyLjE5LS4zLjIuMyAwIC45Ny4yOS0uNzQuMDgtLjg1LjE1LTEuNDYuMDguMi4xOC40Mi4yMy42My0uMTgtLjcuMi0xLjIuMjgtMS42LS4wOS0uMDUtLjI4LjMtLjMyLS41MyAwLS4zNy4xLS4yLjE0LS4yOC0uMDgtLjA1LS4yNi0uMzItLjM4LS44NjEuMDgtLjEzLjIyLjMzLjM0LjM0LS4wOC0uNDItLjItLjc1LS4yLTEuMDgtLjM0LS42OC0uMTIuMS0uNC0uMy0uMzQtMS4wOTEuMy0uMjUuMzQtLjc0LjU0Ljc3Ljg0IDEuOTYuOTgxIDIuNDYtLjEtLjYtLjI4LTEuMi0uNDktMS43Ni4xNi4wNy0uMjYtMS4yNDEuMjEtLjM3QTcuODIzIDcuODI0IDAgMDAxNy43MDIgMS42Yy4xOC4xNy40Mi4zOS4zMy40Mi0uNzUtLjQ1LS42Mi0uNDgtLjczLS42Ny0uNjEtLjI1LS42NS4wMi0xLjA2IDBDMTUuMDgyLjczIDE0Ljg2Mi44IDEzLjguNGwuMDUuMjNjLS43Ny0uMjUtLjkuMS0xLjczIDAtLjA1LS4wNC4yNy0uMTQuNTMtLjE4LS43NDEuMS0uNzAxLS4xNC0xLjQzMS4wMy4xNy0uMTMuMzYtLjIxLjU1LS4zMi0uNi4wNC0xLjQ0LjM1LTEuMTguMDdDOS42LjY4IDcuODQ3IDEuMyA2Ljg2NyAyLjIyTDYuODM4IDJjLS40NS41NC0xLjk2IDEuNjExLTIuMDggMi4zMTFsLS4xMzEuMDNjLS4yMy40LS4zOC44NS0uNTcgMS4yNjEtLjMuNTItLjQ1LjItLjQuMjgtLjYgMS4yMi0uOSAyLjI1MS0xLjE2IDMuMTAyLjE4LjI3IDAgMS42NS4wNyAyLjc2LS4zIDUuNDYzIDMuODQgMTAuNzc2IDguMzYzIDEyLjAwNi42Ny4yMyAxLjY1LjIzIDIuNDkuMjUtLjk5LS4yOC0xLjEyLS4xNS0yLjA4LS40OS0uNy0uMzItLjg1LS43LTEuMzQtMS4xM2wuMi4zNWMtLjk3MS0uMzQtLjU3LS40Mi0xLjM2MS0uNjdsLjIxLS4yN2MtLjMxLS4wMy0uODMtLjUzLS45Ny0uODFsLS4zNC4wMWMtLjQxLS41MDEtLjYzLS44NzEtLjYxLTEuMTYxbC0uMTExLjJjLS4xMy0uMjEtMS41Mi0xLjkwMS0uOC0xLjUxMS0uMTMtLjEyLS4zMS0uMi0uNS0uNTVsLjE0LS4xN2MtLjM1LS40NC0uNjQtMS4wMi0uNjItMS4yLjIuMjQuMzIuMy40NS4zMy0uODgtMi4xNzItLjkzLS4xMi0xLjYwMS0yLjIwMmwuMTUtLjAyYy0uMS0uMTYtLjE4LS4zNC0uMjYtLjUxbC4wNi0uNmMtLjYzLS43NC0uMTgtMy4xMDItLjA5LTQuNDAyLjA3LS41NC41My0xLjEuODgtMS45ODFsLS4yMS0uMDRjLjQtLjcxIDIuMzQxLTIuODcyIDMuMjQxLTIuNzYxLjQzLS41NS0uMDkgMC0uMTgtLjE0Ljk2LS45OTEgMS4yNi0uNyAxLjkwMS0uODguNy0uNDAxLS42LjE2LS4yNy0uMTUxIDEuMi0uMy44NS0uNyAyLjQyMS0uODUuMTYuMS0uMzkuMTQtLjUyLjI2IDEtLjQ5IDMuMTUxLS4zNyA0LjU2Mi4yNyAxLjYzLjc3IDMuNDYxIDMuMDExIDMuNTMxIDUuMTMybC4wOC4wMmMtLjA0Ljg1LjEzIDEuODIxLS4xNyAyLjcxMWwuMi0uNDJNOS41NCAxMy4yMzZsLS4wNS4yOGMuMjYuMzUuNDcuNzMuOCAxLjAxLS4yNC0uNDctLjQyLS42Ni0uNzUtMS4zbS42Mi0uMDJjLS4xNC0uMTUtLjIyLS4zNC0uMzEtLjUyLjA4LjMyLjI2LjYuNDMuODhsLS4xMi0uMzZtMTAuOTQ1LTIuMzgybC0uMDcuMTVjLS4xLjc2LS4zNCAxLjUxMS0uNjkgMi4yMTIuNC0uNzMuNjUtMS41NDEuNzUtMi4zNjJNMTIuNDUuMTJjLjI3LS4xLjY2LS4wNS45NS0uMTItLjM3LjAzLS43NC4wNS0xLjEuMWwuMTUuMDJNMy4wMDYgNS4xNDJjLjA3LjU3LS40My44LjExLjQyLjMtLjY2LS4xMS0uMTgtLjEtLjQybS0uNjQgMi42NjFjLjEyLS4zOS4xNS0uNjIuMi0uODQtLjM1LjQ0LS4xNy41My0uMi44MyIvPjwvc3ZnPg==;" parent="1" vertex="1">
          <mxGeometry x="575.6800000000001" y="676.8199999999999" width="30" height="30" as="geometry" />
        </mxCell>
        <mxCell id="h34N8ByZbucSesH93EYC-57" value="Pi-hole:&lt;br&gt;DNS Sink Hole&lt;div&gt;Network Adblock&lt;/div&gt;" style="text;html=1;align=left;verticalAlign=middle;resizable=0;points=[];autosize=1;strokeColor=none;fillColor=none;" parent="1" vertex="1">
          <mxGeometry x="495.68000000000006" y="706.8299999999999" width="110" height="60" as="geometry" />
        </mxCell>
        <mxCell id="h34N8ByZbucSesH93EYC-59" style="shape=image;editableCssRules=.*;image=data:image/svg+xml,PHN2ZyB2aWV3Qm94PSIwIDAgMjQgMjQiIHhtbG5zPSJodHRwOi8vd3d3LnczLm9yZy8yMDAwL3N2ZyI+PHN0eWxlPip7ZmlsbDojODgxNzFBfTwvc3R5bGU+PHBhdGggZD0iTTIzLjk4IDExLjY0NVMyNC41MzMgMCAxMS43MzUgMEMuNDE4IDAgLjA2NCAxMS4xNy4wNjQgMTEuMTdTLTEuNiAyNCAxMS45OTcgMjRDMjUuMDQgMjQgMjMuOTggMTEuNjQ1IDIzLjk4IDExLjY0NXpNOC4xNTUgNy41NzZjMi40LTEuNDcgNS40NjktLjU3MSA2LjYxOCAxLjYzOC4yMTguNDE5LjI0NiAxLjA2My4xMDggMS41MDMtLjQ3NyAxLjUxNi0xLjYwMSAyLjM2Ni0zLjE0NSAyLjcyOC40NTUtLjM5LjgxNy0uODMyLjkzMy0xLjQ0MmEyLjExMiAyLjExMiAwIDAgMC0uMzY0LTEuNjc3IDIuMTQgMi4xNCAwIDAgMC0yLjQ2NS0uNzVjLS45NS4zNi0xLjQ3IDEuMjI4LTEuMzc3IDIuMjk0LjA4Ny45OS44MzkgMS42MzIgMi4yNDUgMS44NzYtLjIxLjExMS0uMzcyLjE5My0uNTMuMjgxYTUuMTEzIDUuMTEzIDAgMCAwLTEuNjQ0IDEuNDNjLS4xNDMuMTkyLS4yNC4yMDgtLjQ1OC4wNzUtMi44MjctMS43MjktMy4wMDktNi4wNjcuMDc4LTcuOTU2ek02LjA0IDE4LjI1OGMtLjQ1NS4xMTYtLjg5NS4yODYtMS4zNTkuNDM4LjIyNy0xLjUzMiAyLjAyMS0yLjk0MyAzLjUzOS0yLjc4MmEzLjkxIDMuOTEgMCAwIDAtLjc0IDIuMDcyYy0uNTA0LjA5My0uOTguMTU1LTEuNDQuMjcyek0xNS43MDMgMy4zYy40NDguMDE3Ljg5OC4wMSAxLjM0Ny4wMmEyLjMyNCAyLjMyNCAwIDAgMSAuMzM0LjA0NyAzLjI0OSAzLjI0OSAwIDAgMS0uMzQuNDM0Yy0uMTYuMTUtLjM0MS4yOTYtLjU3My4wNjktLjA1NS0uMDU1LS4xODctLjA0Mi0uMjgzLS4wNDQtLjQ0Ny0uMDA1LS44OTQtLjAyLTEuMzQtLjAwM2E4LjMyMyA4LjMyMyAwIDAgMC0xLjE1NC4xMThjLS4wNzIuMDEzLS4xNzguMjUtLjE0Ni4zMzguMDc4LjIwNy4xOTEuNDM1LjM1OS41NjcuNjE5LjQ5IDEuMjc3LjkyOCAxLjkgMS40MTMuNjA0LjQ3MiAxLjE2Ny45OSAxLjUxIDEuNy40NDYuOTI4LjQ2IDEuOS4yNjcgMi44NzctLjMyMiAxLjYzLTEuMTQ3IDIuOTgtMi40ODMgMy45NjItLjUzOC4zOTUtMS4yMDUuNjItMS44MjEuOTAzLS41NDMuMjUtMS4xLjQ2NS0xLjY0NC43MTItLjk4LjQ0Ni0xLjUzIDEuNTEtMS4zNjkgMi42MTUuMTQ5IDEuMDE1IDEuMDQgMS44NjIgMi4wNTkgMi4wMzcgMS4yMjMuMjEgMi40ODYtLjU4NiAyLjc4NS0xLjgzLjMzNi0xLjM5Ny0uNDIzLTIuNjQ2LTEuODQ1LTMuMDI0bC0uMjU2LS4wNjZjLjM4LS4xNy43MDgtLjI5MSAxLjAxMi0uNDU4cS43OTMtLjQzNyAxLjU1OC0uOTI1Yy4xNS0uMDk2LjIzMS0uMDk2LjM2LjAxNC45NzcuODQ2IDEuNTYgMS44OTggMS43MjQgMy4xODcuMjcgMi4xMzUtLjc0IDQuMDk2LTIuNjQ2IDUuMTAxLTIuOTQ4IDEuNTU1LTYuNTU3LS4yMTUtNy4yMDgtMy40ODQtLjU1OC0yLjggMS40MTgtNS4zNCAzLjc5Ny01LjgzIDEuMDIzLS4yMTEgMS45NTgtLjYzNyAyLjY4NS0xLjQyNS40Ny0uNTA4LjY5Ny0uOTQ0Ljc3NS0xLjE0MWEzLjE2NSAzLjE2NSAwIDAgMCAuMjE3LTEuMTU4IDIuNzEgMi43MSAwIDAgMC0uMjM3LS45OTJjLS4yNDgtLjU2Ni0xLjItMS40NjYtMS40MzUtMS42NTZsLTIuMjQtMS43NTRjLS4wNzktLjA2NS0uMTY4LS4wNi0uMzYtLjA0Ny0uMjMuMDE2LS44MTUuMDQ4LTEuMDY3LS4wMTguMjA0LS4xNTUuNzYtLjM4IDEtLjU2LS43MjYtLjQ5LTEuNTU0LS4zMTQtMi4zMTUtLjQ2LjE3Ni0uMzI4IDEuMDQ2LS44MzEgMS41NDEtLjg4OGE3LjMyMyA3LjMyMyAwIDAgMC0uMTM1LS44MjJjLS4wMy0uMTExLS4xNTQtLjIyLS4yNjMtLjI4My0uMjYyLS4xNTQtLjU0MS0uMjgxLS44NDMtLjQzNGExLjc1NSAxLjc1NSAwIDAgMSAuOTA2LS4yOCAzLjM4NSAzLjM4NSAwIDAgMSAuOTA4LjA4OGMuNTQuMTIzLjk3LjA0MiAxLjM5OS0uMzI0LS4zMzgtLjEzNi0uNjc2LS4yNi0xLjAwMy0uNDA3YTkuODQzIDkuODQzIDAgMCAxLS45NDItLjQ5M2MuODUuMTE4IDEuNjcxLjQzNyAyLjU0LjMybC4wMjItLjExOC0yLjAxOC0uNDdjMS4yMDMtLjExIDIuMzIzLS4xMjggMy4zODQuMzg4LjI5OS4xNDYuNjEuMjY2Ljg5Ny40MzIuMTQuMDguMjMzLjI0LjM0OC4zNjUuMDkuMDk4LjE2NC4yMy4yNzYuMjkuNDI0LjIyNS44OS4yMzQgMS4zNjYuMjIzbC4wMS0uMTZjLjQ3OS4xNSAxLjAxNy43MDIgMS4wMTcgMS4xMDUtLjc3NiAwLTEuNTUtLjAwMy0yLjMyNS4wMDQtLjA4MyAwLS4xNjUuMDYxLS4yNDcuMDk0LjA3OC4wNDYuMTU1LjEyOC4yMzUuMTMxeiBNMTQuNzAzIDIuMTUzYS4xMTguMTE4IDAgMCAwLS4wMTYuMTkuMTc5LjE3OSAwIDAgMCAuMjQ2LjA2NWMuMDc1LS4wMzguMTQ4LS4wNzguMjM4LS4xMjUtLjA3Mi0uMDYyLS4xMy0uMTE0LS4xOS0uMTYzLS4xMDYtLjA4Ny0uMTkzLS4wMzItLjI3OC4wMzN6Ii8+PC9zdmc+;" parent="1" vertex="1">
          <mxGeometry x="450.74" y="783.26" width="40" height="40" as="geometry" />
        </mxCell>
        <mxCell id="h34N8ByZbucSesH93EYC-60" value="WireGuard:&lt;br&gt;VPN Tunnel" style="text;html=1;align=left;verticalAlign=middle;resizable=0;points=[];autosize=1;strokeColor=none;fillColor=none;" parent="1" vertex="1">
          <mxGeometry x="495.68000000000006" y="774.9999999999999" width="90" height="40" as="geometry" />
        </mxCell>
        <mxCell id="vhEITEvF5-Utvm210V1t-1" style="shape=image;editableCssRules=.*;image=data:image/svg+xml,PHN2ZyB2aWV3Qm94PSIwIDAgMjQgMjQiIHhtbG5zPSJodHRwOi8vd3d3LnczLm9yZy8yMDAwL3N2ZyI+PHN0eWxlPip7ZmlsbDojNDhCOUM3fTwvc3R5bGU+PHBhdGggZD0iTTEyIDBDNS4zNzIgMCAwIDUuMzczIDAgMTJjMCA2LjYyOCA1LjM3MiAxMiAxMiAxMiA2LjYyNyAwIDEyLTUuMzcyIDEyLTEyIDAtNi42MjctNS4zNzMtMTItMTItMTJaTTkuNjQgMi45MThjMS4wOTEtLjAyNiAxLjU0OC4yMjkgMi4xODIuNjM1YTQuNDU5IDQuNDU5IDAgMCAxIDEuOTAyIDIuNzY0Yy4yNTQgMS4xNDEuMTc4IDIuMDI5LS4xMjcgMi42NjR2LjA1Yy0uNjA5IDEuMjk0LTEuNjIyIDIuMzM1LTMuMDQzIDIuODQybDEuMjE3IDMuMTcyYy4yMjguNTgzLjQzMiAxLjE5Mi4yNTQgMS43NS0uMTc3LjU1OC0uOTg5LjczNi0xLjU3Mi4xMjctMS4xMTYtMS4xOTItNC44NzEtOC43MDItNS4xNS05LjI2LS4yNzktLjU1OC0uNTg0LTEuMDE2LS41ODQtMS41NzQuMDI2LS44MzcgMS4zMTgtMS43IDEuOTUzLTIuMTMxLjYzNC0uNDMxIDEuODc3LTEuMDE0IDIuOTY4LTEuMDM5Wm0tLjk5NiAyLjMxMWMtLjc4OS4wMjItLjM1OCAxLjY2OS0uMTk3IDIuMTI5LjE3OC41MDcuNjYxIDEuNTcyIDEuMTkzIDIuMTA1LjEyNy4xMjcuMjU0LjIyOS40MDcuMjU0LjE1Mi4wMjcuNDU3LS4xMjcuNTg0LS4zM2EuOTMyLjkzMiAwIDAgMCAuMTUtLjU1OSAzLjIzMiAzLjIzMiAwIDAgMC0uMDQ5LTEuMjE2Yy0uMjI4LS43ODctLjcxMS0xLjU0OC0xLjM0Ni0yLjA1NS0uMTI3LS4xMDItLjI3OS0uMjI5LS40NTctLjI3OWEuOTAxLjkwMSAwIDAgMC0uMjg1LS4wNDlabTguNDE0IDIuMDI3YTIuMjgzIDIuMjgzIDAgMCAxIDEuNTg4LjYzNmMuMzA1LjI3OS4zMy41ODIuMjI5Ljk2My0uMTAyLjM4LS40NTcgMS4xOTQtLjczNiAxLjc3N2wtLjcwOSAxLjM0NGMtMS4zNyAyLjQzNS0xLjY0OSAyLjY4OS0yLjAzIDIuNTM3LS40NTYtLjE3OC0uMzA0LTIuNjE0LjEyNy01LjU4Mi4xMjctLjgxMi4zMjktMS4yMTcuNTU3LTEuNDIuMTcxLS4xNTIuNi0uMjQ4Ljk3NS0uMjU0bC0uMDAxLS4wMDFabS0xLjg1OSA4LjMzMmMuNTU0LjAxMS43ODkuNy42NTYgMS4yMzJhLjg2MS44NjEgMCAwIDEtLjM3OS41NTljLS4yMDMuMTI3LS42ODUuMTI3LS45NjUtLjEwMi0uMjc4LS4yMjgtLjMzLS42MDktLjI1NC0uOTE0LjA3Ni0uMzA0LjMzMS0uNjM1LjY4Ni0uNzM2YS43NTcuNzU3IDAgMCAxIC4yNTYtLjAzOVptLTguNjA0IDIuODA1aDEwLjgwOWMuNTIgMCAuOTM4LjQxOS45MzguOTM5di4wNzRjMCAuNTItLjQxOC45NC0uOTM4Ljk0SDYuNTk1YS45MzYuOTM2IDAgMCAxLS45MzctLjk0di0uMDc0YzAtLjUyLjQxNy0uOTM5LjkzNy0uOTM5WiIvPjwvc3ZnPg==;" parent="1" vertex="1">
          <mxGeometry x="43.79" y="440" width="40" height="40" as="geometry" />
        </mxCell>
        <mxCell id="vhEITEvF5-Utvm210V1t-2" style="shape=image;editableCssRules=.*;image=data:image/svg+xml,PHN2ZyB2aWV3Qm94PSIwIDAgMjQgMjQiIHhtbG5zPSJodHRwOi8vd3d3LnczLm9yZy8yMDAwL3N2ZyI+PHN0eWxlPip7ZmlsbDojMUY4OEMwfTwvc3R5bGU+PHBhdGggZD0iTTExLjA5NC40N2MtLjg0MiAwLTEuNjk2LjA5Mi0yLjU1Mi4yODhhMTEuMzcgMTEuMzcgMCAwIDAtNC44NyAyLjQyMyAxMC42MzIgMTAuNjMyIDAgMCAwLTIuMzYgMi44MjZBMTAuMTMyIDEwLjEzMiAwIDAgMCAuMzA1IDguNTgyYy0uMzk4IDEuNjItLjQgMy4zMzYtLjA0MyA1LjA0OC4wODUuNDA1LjE4My44MDkuMzEgMS4yMTJhMTEuODUgMTEuODUgMCAwIDAgMS42NjIgMy43MjkgMy4yNzMgMy4yNzMgMCAwIDAtLjA4Ni40MjcgMy4zMjMgMy4zMjMgMCAwIDAgMi44NDggMy43MSAzLjI3OSAzLjI3OSAwIDAgMCAxLjk0Ny0uMzQ2YzEuMDQ1LjUxIDIuMTcuODY0IDMuMzM5IDEuMDRhMTEuNjYgMTEuNjYgMCAwIDAgNC4yODUtLjE1NSAxMS41NjYgMTEuNTY2IDAgMCAwIDQuOTM2LTIuNDg1IDEwLjY0MyAxMC42NDMgMCAwIDAgMi4zNTItMi44OTQgMTEuMTY0IDExLjE2NCAwIDAgMCAxLjM1Ni00LjQyNCAxMS4yMTQgMTEuMjE0IDAgMCAwLS40OTgtNC4zMzVjLjE3NS0uMDc3LjMzOC0uMTc1LjQ4Ni0uMjkzYS40NDQuNDQ0IDg5Ljk5MiAwIDAgLjAwMSAwYy40MDItLjMyMi42OTMtLjc5NC43NzctMS4zNDJhMi4xNDYgMi4xNDYgMCAwIDAtMS43OS0yLjQzNCAyLjExNSAyLjExNSAwIDAgMC0xLjIwNS4xNzFjLS4wMzgtLjA0My0uMDc4LS4wODYtLjExMy0uMTNhMTEuNjkzIDExLjY5MyAwIDAgMC0zLjQ3Ni0yLjkzIDEzLjM0OCAxMy4zNDggMCAwIDAtMS43Ni0uODEgMTMuNTUgMTMuNTUgMCAwIDAtMi4wNi0uNjEzQTEyLjEyMSAxMi4xMjEgMCAwIDAgMTEuMDkzLjQ3Wm0uNzE0LjMyOGMuMzQ1LS4wMDQuNjg4LjAxIDEuMDI4LjA0MmE5Ljg5MiA5Ljg5MiAwIDAgMSAyLjc0My42MzljLjk4NC4zOSAxLjg5Ljk1OCAyLjcwNyAxLjYzMi44MDMuNjYyIDEuNTAyIDEuNDUgMi4wOTEgMi4zMjguMDI2LjAzOS4wNDguMDguMDcuMTJhMi4xMiAyLjEyIDAgMCAwLS40MzUgMi42NDZjLS4xNTguMTE0LS45Ny42OTItMS42MzQgMS4xODMtLjQxNC4zMDgtLjczMy41NTctLjczMy41NTdsLjU4MS42OHMuMjk2LS4yNzYuNjY1LS42MzhjLjU3Mi0uNTYyIDEuMjI5LTEuMjMzIDEuMzk1LTEuNDAzYTIuMTIyIDIuMTIyIDAgMCAwIDEuOTA3LjY3NyAxMS4yMjkgMTEuMjI5IDAgMCAxLS4wMTMgNC4wNDYgMTEuNDEgMTEuNDEgMCAwIDEtMS40NzUgMy44OTcgMTIuMzQzIDEyLjM0MyAwIDAgMS0yLjA3OSAyLjU4N2MtMS4xOSAxLjEyNS0yLjYzMyAyLjAyMi00LjMwNiAyLjUzMWExMC44MjYgMTAuODI2IDAgMCAxLTMuOTczLjQ4NCAxMS4wNCAxMS4wNCAwIDAgMS0zLjA1Ny0uNjUyIDMuMzA0IDMuMzA0IDAgMCAwIDEuNDE3LTIuMjk0IDMuMjc1IDMuMjc1IDAgMCAwLS4yOTQtMS44NDJjLjE4LS4xNjIuNDAzLS4zNjMuNjU2LS42IDEuMDE1LS45NTUgMi4zNTMtMi4zMDMgMi4zNTMtMi4zMDNsLS40Ny0uNTk5cy0xLjYzLjk3Mi0yLjgwMSAxLjcyOGMtLjMwNy4xOTgtLjU3My4zNzgtLjc3Ny41MTdhMy4yNzMgMy4yNzMgMCAwIDAtMS41MTYtLjYxMWMtMS41MDctLjE5OC0yLjkyNy42NzItMy40ODcgMi4wMTdhMTAuMzIzIDEwLjMyMyAwIDAgMS0uNjk1LTEuMDc4QTEwLjkyIDEwLjkyIDAgMCAxIC43MjggMTQuOGExMC4zNSAxMC4zNSAwIDAgMS0uMi0xLjIxMmMtLjE2NC0xLjY1My4xMDMtMy4yNTguNjI5LTQuNzU0YTEyLjk1IDEyLjk1IDAgMCAxIDEuMDg3LTIuMjg4Yy41Ny0uOTY4IDEuMjQ4LTEuODcyIDIuMDY5LTIuNjU2QTExLjAxMyAxMS4wMTMgMCAwIDEgMTEuODA4Ljc5N1ptLS4xNDcgMy4yNTdhMy44MzggMy44MzggMCAwIDAtMy44MiAzLjgydjIuMzZoLS45NGMtLjc1MSAwLTEuMzc3LjYyNS0xLjM3NyAxLjM3N3YzLjhoMS40NnYtMy43MThoOS4zNTR2Ni4yNjRIMTAuMDJ2MS40Nmg2LjRjLjc1MSAwIDEuMzc3LS42MjUgMS4zNzctMS4zNzd2LTYuNDNjMC0uNzUxLS42MjYtMS4zNzctMS4zNzctMS4zNzdoLS45NHYtMi4zNmEzLjgzOCAzLjgzOCAwIDAgMC0zLjgyLTMuODE5em0wIDEuNDZhMi4zNzEgMi4zNzEgMCAwIDEgMi4zNiAyLjM2djIuMzZIOS4zdi0yLjM2YTIuMzcyIDIuMzcyIDAgMCAxIDIuMzYtMi4zNnptMTAuMTQxLjM5MmExLjI1MyAxLjI1MyAwIDAgMSAxLjI5NiAxLjQzNGMtLjA0OS4zMTktLjIxNy41OS0uNDUzLjc4LS4yNjYuMjEzLS42MS4zMTgtLjk2OC4yNjRhMS4yNTMgMS4yNTMgMCAwIDEtMS4wNDUtMS40MiAxLjI1NSAxLjI1NSAwIDAgMSAxLjE3LTEuMDU4ek01LjM4NCAxNy40MjVhMi4wMiAyLjAyIDAgMCAxIDEuOTE3IDEuMjk4Yy4xMTYuMy4xNTkuNjI4LjExNC45NjdhMi4wMTUgMi4wMTUgMCAwIDEtMi4yNDkgMS43MjggMi4wMTYgMi4wMTYgMCAwIDEtMS43MjctMi4yNSAyLjAxNyAyLjAxNyAwIDAgMSAxLjk0NS0xLjc0M3oiLz48L3N2Zz4=;" parent="1" vertex="1">
          <mxGeometry x="254.4" y="716.82" width="40" height="40" as="geometry" />
        </mxCell>
        <mxCell id="vhEITEvF5-Utvm210V1t-3" value="" style="fontColor=#0066CC;verticalAlign=top;verticalLabelPosition=bottom;labelPosition=center;align=center;html=1;outlineConnect=0;fillColor=#CCCCCC;strokeColor=#6881B3;gradientColor=none;gradientDirection=north;strokeWidth=2;shape=mxgraph.networks.switch;" parent="1" vertex="1">
          <mxGeometry x="390" y="300" width="100" height="30" as="geometry" />
        </mxCell>
        <mxCell id="vhEITEvF5-Utvm210V1t-23" value="" style="edgeStyle=orthogonalEdgeStyle;rounded=0;orthogonalLoop=1;jettySize=auto;html=1;" parent="1" edge="1">
          <mxGeometry relative="1" as="geometry">
            <mxPoint x="300" y="240" as="sourcePoint" />
            <mxPoint x="440" y="280" as="targetPoint" />
          </mxGeometry>
        </mxCell>
        <mxCell id="vhEITEvF5-Utvm210V1t-4" value="" style="sketch=0;verticalLabelPosition=bottom;sketch=0;aspect=fixed;html=1;verticalAlign=top;strokeColor=none;fillColor=#000000;align=center;outlineConnect=0;pointerEvents=1;shape=mxgraph.citrix2.wifi_router;" parent="1" vertex="1">
          <mxGeometry x="196.42000000000002" y="170" width="89.82" height="90" as="geometry" />
        </mxCell>
        <mxCell id="vhEITEvF5-Utvm210V1t-5" value="" style="shape=image;verticalLabelPosition=bottom;labelBackgroundColor=default;verticalAlign=top;aspect=fixed;imageAspect=0;image=https://upload.wikimedia.org/wikipedia/commons/thumb/5/5a/Unbound_DNS_resolver_logo.svg/2560px-Unbound_DNS_resolver_logo.svg.png;clipPath=inset(0% 83.33% 0% 0%);" parent="1" vertex="1">
          <mxGeometry x="450.74" y="849.8" width="40" height="55.2" as="geometry" />
        </mxCell>
        <mxCell id="vhEITEvF5-Utvm210V1t-6" value="Unbound:&lt;br&gt;Recursive,&lt;span style=&quot;background-color: transparent; color: light-dark(rgb(0, 0, 0), rgb(255, 255, 255));&quot;&gt;Caching&amp;nbsp;&lt;/span&gt;&lt;div&gt;&lt;span style=&quot;background-color: transparent; color: light-dark(rgb(0, 0, 0), rgb(255, 255, 255));&quot;&gt;DNS Resolver&lt;/span&gt;&lt;/div&gt;" style="text;html=1;align=left;verticalAlign=middle;resizable=0;points=[];autosize=1;strokeColor=none;fillColor=none;" parent="1" vertex="1">
          <mxGeometry x="495.68000000000006" y="845" width="130" height="60" as="geometry" />
        </mxCell>
        <mxCell id="vhEITEvF5-Utvm210V1t-19" style="shape=image;editableCssRules=.*;image=data:image/svg+xml,PHN2ZyB2aWV3Qm94PSIwIDAgMjQgMjQiIHhtbG5zPSJodHRwOi8vd3d3LnczLm9yZy8yMDAwL3N2ZyI+PHN0eWxlPip7ZmlsbDojOTYwNjBDfTwvc3R5bGU+PHBhdGggZD0iTTQuMzQ0IDBjLjIzOCA0Ljc5MiAzLjI1NiA3LjA1NiA2LjI1MiA3LjM3Ni4xNjUtMS42OTItNC4zMTktNS42LTQuMzE5LTUuNi0uMDA4LS4wMTEuMDA5LS4wMjUuMDE5LS4wMTQgMCAwIDQuNjQ4IDQuMDEgNS40MjMgNS42NDUgMi43NjItLjE1IDUuMTk2LTEuOTQ3IDUtNC45MTIgMCAwLTQuMTItLjYxMy01IDQuNjE4QzExLjQ4IDIuNzUzIDguOTkzIDAgNC4zNDQgMHpNMTIgNy42ODJ2LjAwMmEzLjY4IDMuNjggMCAwIDAtMi41OTEgMS4wNzdMNC45NCAxMy4yMjdhMy42ODMgMy42ODMgMCAwIDAtLjg2IDEuMzU2IDMuMzEgMy4zMSAwIDAgMC0uMjM3IDEuMjU1QTMuNjgxIDMuNjgxIDAgMCAwIDQuOTIgMTguNDVsNC40NjQgNC40NjZhMy42OSAzLjY5IDAgMCAwIDIuMjUxIDEuMDZsLjAwMi4wMDFjLjA5My4wMS4xODcuMDE1LjI4LjAxN2wtLjEtLjAwOGMuMDYuMDAzLjExNy4wMDkuMTc3LjAwOWwtLjA3Ny0uMDAxTDEyIDI0bC0uMDA0LS4wMDVhMy42OCAzLjY4IDAgMCAwIDIuNjEtMS4wNzdsNC40NjktNC40NjVhMy42ODMgMy42ODMgMCAwIDAgMS4wMDYtMS44ODhsLjAxMi0uMDYzYTMuNjgyIDMuNjgyIDAgMCAwIC4wNTctLjU0MWwuMDAzLS4wNjFjMC0uMDE3LjAwMy0uMDUuMDA0LS4wNmgtLjAwMmEzLjY4MyAzLjY4MyAwIDAgMC0xLjA3Ny0yLjYwN2wtNC40NjYtNC40NjhhMy42OTQgMy42OTQgMCAwIDAtMS41NjQtLjkyN2wtLjA3LS4wMmEzLjQzIDMuNDMgMCAwIDAtLjk0Ni0uMTMzTDEyIDcuNjgyem0zLjE2NSAzLjM1N2MuMDIzIDEuNzQ4LTEuMzMgMy4wNzgtMS4zMyA0LjgwNi4xNjQgMi4yMjcgMS43MzMgMy4yMDcgMy4yNjYgMy4xNDYtLjAzNS4wMDMtLjA2OC4wMDctLjEwNC4wMDktMS44NDcuMTM1LTMuMjA5LTEuMzI2LTUuMDAyLTEuMzI2LTIuMjMuMTY0LTMuMjEgMS43MzYtMy4xNDcgMy4yN2wtLjAwOC0uMTA0Yy0uMTMzLTEuODQ3IDEuMzI4LTMuMjEgMS4zMjgtNS4wMDItLjE3My0yLjMyLTEuODY3LTMuMjg0LTMuNDYtMy4xMzIuMS0uMDExLjIwMy0uMDIxLjMxLS4wMjcgMS44NDctLjEzMyAzLjIwOSAxLjMyOCA1LjAwMiAxLjMyOCAyLjA4Mi0uMTU1IDMuMDc0LTEuNTM2IDMuMTQ1LTIuOTY4ek00LjM0NCAwYy4yMzggNC43OTIgMy4yNTYgNy4wNTYgNi4yNTIgNy4zNzYuMTY1LTEuNjkyLTQuMzE5LTUuNi00LjMxOS01LjYtLjAwOC0uMDExLjAwOS0uMDI1LjAxOS0uMDE0IDAgMCA0LjY0OCA0LjAxIDUuNDIzIDUuNjQ1IDIuNzYyLS4xNSA1LjE5Ni0xLjk0NyA1LTQuOTEyIDAgMC00LjEyLS42MTMtNSA0LjYxOEMxMS40OCAyLjc1MyA4Ljk5MyAwIDQuMzQ0IDB6TTEyIDcuNjgydi4wMDJhMy42OCAzLjY4IDAgMCAwLTIuNTkxIDEuMDc3TDQuOTQgMTMuMjI3YTMuNjgzIDMuNjgzIDAgMCAwLS44NiAxLjM1NiAzLjMxIDMuMzEgMCAwIDAtLjIzNyAxLjI1NUEzLjY4MSAzLjY4MSAwIDAgMCA0LjkyIDE4LjQ1bDQuNDY0IDQuNDY2YTMuNjkgMy42OSAwIDAgMCAyLjI1MSAxLjA2bC4wMDIuMDAxYy4wOTMuMDEuMTg3LjAxNS4yOC4wMTdsLS4xLS4wMDhjLjA2LjAwMy4xMTcuMDA5LjE3Ny4wMDlsLS4wNzctLjAwMUwxMiAyNGwtLjAwNC0uMDA1YTMuNjggMy42OCAwIDAgMCAyLjYxLTEuMDc3bDQuNDY5LTQuNDY1YTMuNjgzIDMuNjgzIDAgMCAwIDEuMDA2LTEuODg4bC4wMTItLjA2M2EzLjY4MiAzLjY4MiAwIDAgMCAuMDU3LS41NDFsLjAwMy0uMDYxYzAtLjAxNy4wMDMtLjA1LjAwNC0uMDZoLS4wMDJhMy42ODMgMy42ODMgMCAwIDAtMS4wNzctMi42MDdsLTQuNDY2LTQuNDY4YTMuNjk0IDMuNjk0IDAgMCAwLTEuNTY0LS45MjdsLS4wNy0uMDJhMy40MyAzLjQzIDAgMCAwLS45NDYtLjEzM0wxMiA3LjY4MnptMy4xNjUgMy4zNTdjLjAyMyAxLjc0OC0xLjMzIDMuMDc4LTEuMzMgNC44MDYuMTY0IDIuMjI3IDEuNzMzIDMuMjA3IDMuMjY2IDMuMTQ2LS4wMzUuMDAzLS4wNjguMDA3LS4xMDQuMDA5LTEuODQ3LjEzNS0zLjIwOS0xLjMyNi01LjAwMi0xLjMyNi0yLjIzLjE2NC0zLjIxIDEuNzM2LTMuMTQ3IDMuMjdsLS4wMDgtLjEwNGMtLjEzMy0xLjg0NyAxLjMyOC0zLjIxIDEuMzI4LTUuMDAyLS4xNzMtMi4zMi0xLjg2Ny0zLjI4NC0zLjQ2LTMuMTMyLjEtLjAxMS4yMDMtLjAyMS4zMS0uMDI3IDEuODQ3LS4xMzMgMy4yMDkgMS4zMjggNS4wMDIgMS4zMjggMi4wODItLjE1NSAzLjA3NC0xLjUzNiAzLjE0NS0yLjk2OHoiLz48L3N2Zz4=;" parent="1" vertex="1">
          <mxGeometry x="450.74" y="716.82" width="40" height="40" as="geometry" />
        </mxCell>
        <mxCell id="vhEITEvF5-Utvm210V1t-20" style="shape=image;editableCssRules=.*;image=data:image/svg+xml,PHN2ZyB2aWV3Qm94PSIwIDAgMjQgMjQiIHhtbG5zPSJodHRwOi8vd3d3LnczLm9yZy8yMDAwL3N2ZyI+PHN0eWxlPip7ZmlsbDojNTFBMkRBfTwvc3R5bGU+PHBhdGggZD0iTTEyLjAwMSAwQzUuMzc2IDAgLjAwOCA1LjM2OS4wMDQgMTEuOTkySC4wMDJ2OS4yODdoLjAwMkEyLjcyNiAyLjcyNiAwIDAgMCAyLjczIDI0aDkuMjc1YzYuNjI2LS4wMDQgMTEuOTkzLTUuMzcyIDExLjk5My0xMS45OTdDMjMuOTk4IDUuMzc1IDE4LjYyOCAwIDEyIDB6bTIuNDMxIDQuOTRjMi4wMTUgMCAzLjkxNyAxLjU0MyAzLjkxNyAzLjY3MSAwIC4xOTcuMDAxLjM5NS0uMDMuNjE5YTEuMDAyIDEuMDAyIDAgMCAxLTEuMTM3Ljg5MyAxLjAwMiAxLjAwMiAwIDAgMS0uODQyLTEuMTc1IDIuNjEgMi42MSAwIDAgMCAuMDEzLS4zMzdjMC0xLjIwNy0uOTg3LTEuNjcyLTEuOTItMS42NzItLjkzNCAwLTEuNzc1Ljc4NC0xLjc3NyAxLjY3Mi4wMTYgMS4wMjcgMCAyLjA0NiAwIDMuMDdsMS43MzItLjAxMmMxLjM1Mi0uMDI4IDEuMzY4IDIuMDA5LjAxNiAxLjk5OGwtMS43NDguMDEzYy0uMDA0LjgyNi4wMDYuNjc3LjAwMiAxLjA5MyAwIDAgLjAxNSAxLjAxLS4wMTYgMS43NzYtLjIwOSAyLjI1LTIuMTI0IDQuMDQ2LTQuNDI0IDQuMDQ2LTIuNDM4IDAtNC40NDgtMS45OTMtNC40NDgtNC40MzcuMDczLTIuNTE1IDIuMDc4LTQuNDkyIDQuNjAzLTQuNDY5bDEuNDA5LS4wMXYxLjk5NmwtMS40MDkuMDEzaC0uMDA3Yy0xLjM4OC4wNC0yLjU3Ny45ODQtMi42IDIuNDdhMi40MzggMi40MzggMCAwIDAgMi40NTIgMi40MzljMS4zNTYgMCAyLjQ0MS0uOTg3IDIuNDQxLTIuNDM3bC0uMDAxLTcuNTU3YzAtLjE0LjAwNS0uMjUyLjAyLS40MDcuMjMtMS44NDggMS44ODMtMy4yNTYgMy43NTQtMy4yNTZ6Ii8+PC9zdmc+;" parent="1" vertex="1">
          <mxGeometry x="254.4" y="1072" width="40" height="40" as="geometry" />
        </mxCell>
        <mxCell id="vhEITEvF5-Utvm210V1t-24" value="OpenWRT&lt;div&gt;Router&lt;/div&gt;" style="text;strokeColor=none;align=center;fillColor=none;html=1;verticalAlign=middle;whiteSpace=wrap;rounded=0;" parent="1" vertex="1">
          <mxGeometry x="210" y="270" width="60" height="30" as="geometry" />
        </mxCell>
      </root>
    </mxGraphModel>
  </diagram>
</mxfile>
